<svg fill="none" height="81" viewBox="0 0 150 81" width="150" xmlns="http://www.w3.org/2000/svg"><path d="m91.53 41.85c.54 0 .81.24.81.72v7.56c0 .54-.27.81-.81.81-5.94 0-11.07-1.08-15.39-3.24-4.74 2.16-12 3.24-21.78 3.24h-.09c-6.66 0-11.46-1.2-14.4-3.6-2.94-2.46-4.71-6.18-5.31-11.16-.06-.48-.09-1.26-.09-2.34-4.26.9-7.59 1.89-9.99 2.97 1.02 3.36 1.53 6.42 1.53 9.18 0 5.58-2.07 10.47-6.21 14.67-4.08 4.26-9.42 6.9-16.02 7.92l-3.78-8.46c5.7-.9 10.14-2.64 13.32-5.22 3.18-2.52 4.77-5.49 4.77-8.91 0-2.82-1.26-6.96-3.78-12.42l.99-2.07c6.84-3.36 13.59-6 20.25-7.92l5.22 3.6c-.18 1.62-.27 2.82-.27 3.6 0 3.24.54 5.64 1.62 7.2 7.08-7.86 12.6-13.14 16.56-15.84 4.02-2.76 7.86-4.14 11.52-4.14 4.08 0 7.56 1.41 10.44 4.23s4.32 6.63 4.32 11.43c0 3-.51 5.52-1.53 7.56 2.28.42 4.98.63 8.1.63zm-37.17 0c6.18 0 10.95-.3 14.31-.9 3.36-.66 5.58-1.53 6.66-2.61 1.14-1.08 1.71-2.58 1.71-4.5 0-2.1-.72-3.81-2.16-5.13-1.44-1.38-3.3-2.07-5.58-2.07-2.4 0-5.1 1.02-8.1 3.06-3 1.98-7.44 5.85-13.32 11.61 1.74.36 3.87.54 6.39.54z" fill="#090817"/><path d="m95.0569 50.94h-3.51c-.54 0-.81-.27-.81-.81v-7.56c0-.48.27-.72.81-.72h5.31c3.2401 0 4.8601-1.29 4.8601-3.87 0-2.64-1.14-8.04-3.4201-16.2l8.1901-2.7c2.04 8.52 3.06 14.7 3.06 18.54 0 4.26-1.26 7.56-3.78 9.9-2.46 2.28-6.0301 3.42-10.7101 3.42zm8.7991 4.4704c2.284 2.2163 2.441 5.8307.356 8.236l-2.135 2.4636-6.4801-5.94 6.3001-6.66z" fill="#090817"/><path d="m137.451 71.9878c4.9-4.6231 8.807-10.1968 11.481-16.3804 2.675-6.1836-5.935-13.1385-5.923-19.8757.013-6.7371 8.648-13.115 5.996-19.3086-2.651-6.1935-6.537-11.78166-11.42-16.4231l-6.094 6.4118c-1.903 2.00155-1.79 5.1477-.073 7.3108 1.97 2.4825 3.605 5.222 4.858 8.1492 1.911 4.4636 2.892 9.2698 2.883 14.1252-.009 4.8553-1.008 9.6579-2.935 14.1143-1.264 2.9225-2.91 5.6559-4.889 8.131-1.725 2.1567-1.85 5.3024.045 7.311z" fill="#19af94"/><g fill="#090817"><path d="m68.2561 79.9639h.464c.56 0 .9973-.0906 1.312-.272.3147-.176.5227-.424.624-.744h-.96c-.432 0-.768-.1173-1.008-.352-.2347-.2346-.352-.568-.352-1 0-.256.0373-.496.112-.72.08-.224.1867-.416.32-.576.1387-.1653.3013-.296.488-.392s.392-.144.616-.144c.4693 0 .8347.2 1.096.6.2667.4.4053.96.416 1.68h.376v.712l-.192.192h-.272c-.1333.6134-.4133 1.0854-.84 1.416-.4213.336-.9893.504-1.704.504h-.496zm.744-2.48c0 .1974.0613.3414.184.432.1227.0854.304.128.544.128h.992v-.152c0-.368-.0853-.6613-.256-.88-.1707-.224-.392-.336-.664-.336-.2453 0-.44.0747-.584.224-.144.1494-.216.344-.216.584z"/><path d="m71.5659 78.2359.192-.192h.744c.24 0 .4053-.024.496-.072.0907-.0533.136-.1413.136-.264 0-.08-.024-.16-.072-.24s-.1387-.1973-.272-.352l-.952-1.048v-1.696l3.616-1.432v.864l-3.288 1.304v.048l1.888 2.056c.1547.1707.2933.3094.416.416.1227.1067.24.192.352.256.112.0587.224.1014.336.128.112.0214.2373.032.376.032v.712l-.192.192c-.1867 0-.352-.0133-.496-.04-.144-.032-.28-.088-.408-.168s-.2587-.1866-.392-.32c-.1333-.1386-.28-.3146-.44-.528l-.168-.224-.04.016c.016.0907.024.176.024.256 0 .2987-.0907.5414-.272.728-.176.1867-.416.28-.72.28h-.864z"/><path d="m75.3394 78.2359.192-.192h.264c.4426 0 .664-.2106.664-.632v-1.216h.696v1.216c0 .4214.208.632.624.632h.304v.712l-.2.192c-.3947 0-.7014-.072-.92-.216-.2134-.1493-.3547-.3813-.424-.696h-.048c-.064.3307-.184.5654-.36.704-.1707.1387-.4347.208-.792.208zm1.952-2.856c-.1227 0-.2214-.0373-.296-.112-.0694-.0746-.104-.1893-.104-.344 0-.16.0346-.2746.104-.344.0746-.0746.1733-.112.296-.112h.12c.1226 0 .2213.0374.296.112.0746.0694.112.184.112.344 0 .1547-.0374.2694-.112.344-.0747.0747-.1734.112-.296.112zm-1.128 0c-.1227 0-.2214-.0373-.296-.112-.0694-.0746-.104-.1893-.104-.344 0-.16.0346-.2746.104-.344.0746-.0746.1733-.112.296-.112h.12c.1226 0 .2213.0374.296.112.0746.0694.112.184.112.344 0 .1547-.0374.2694-.112.344-.0747.0747-.1734.112-.296.112z"/><path d="m77.894 78.2359.192-.192h.264c.4427 0 .664-.2106.664-.632v-1.216h.696v1.216c0 .4214.208.632.624.632h.304v.712l-.2.192c-.3946 0-.7013-.072-.92-.216-.2133-.1493-.3546-.3813-.424-.696h-.048c-.064.3307-.184.5654-.36.704-.1706.1387-.4346.208-.792.208zm1.968 2.368c-.1226 0-.2213-.0373-.296-.112-.0693-.0746-.104-.1893-.104-.344 0-.16.0347-.2773.104-.352.0747-.0693.1734-.104.296-.104h.12c.1227 0 .2214.0347.296.104.0747.0747.112.192.112.352 0 .1547-.0373.2694-.112.344-.0746.0747-.1733.112-.296.112zm-1.128 0c-.1226 0-.2213-.0373-.296-.112-.0693-.0746-.104-.1893-.104-.344 0-.16.0347-.2773.104-.352.0747-.0693.1734-.104.296-.104h.12c.1227 0 .2214.0347.296.104.0747.0747.112.192.112.352 0 .1547-.0373.2694-.112.344-.0746.0747-.1733.112-.296.112z"/><path d="m80.4487 78.2359.192-.192h.168c.3627 0 .6187-.04.768-.12.1494-.0853.224-.2373.224-.456 0-.0906-.008-.2053-.024-.344-.0106-.1386-.0346-.3226-.072-.552l-.128-.696.696-.112.104.696c.064.4267.096.7627.096 1.008 0 .5014-.136.8747-.408 1.12-.272.24-.6906.36-1.256.36h-.36zm1.864-3.288c-.1226 0-.2213-.0373-.296-.112-.0693-.0746-.104-.1893-.104-.344 0-.16.0347-.2746.104-.344.0747-.0746.1734-.112.296-.112h.12c.1227 0 .2214.0374.296.112.0747.0694.112.184.112.344 0 .1547-.0373.2694-.112.344-.0746.0747-.1733.112-.296.112zm-1.128 0c-.1226 0-.2213-.0373-.296-.112-.0693-.0746-.104-.1893-.104-.344 0-.16.0347-.2746.104-.344.0747-.0746.1734-.112.296-.112h.12c.1227 0 .2214.0374.296.112.0747.0694.112.184.112.344 0 .1547-.0373.2694-.112.344-.0746.0747-.1733.112-.296.112z"/><path d="m88.472 78.9479c-.4854 0-.8347-.0986-1.048-.296-.208-.2026-.312-.5146-.312-.936v-.096h-.04c-.08.2987-.2054.5147-.376.648-.1707.128-.3947.192-.672.192-.368 0-.6507-.0986-.848-.296-.1974-.1973-.296-.4746-.296-.832 0-.1813.0266-.3466.08-.496.0533-.1546.136-.2986.248-.432.112-.1333.2506-.2586.416-.376.1706-.1226.3706-.2453.6-.368l.848-.448v-.424h.728v2.752c0 .192.048.3254.144.4.096.0694.248.104.456.104h.264v.712zm-2.272-1.392c.32 0 .544-.04.672-.12.1333-.08.2-.2213.2-.424v-1.08l-.72.368c-.288.1494-.496.2827-.624.4-.128.112-.192.2507-.192.416 0 .1547.048.2667.144.336.1013.0694.2746.104.52.104zm1.192-3.416c-.1227 0-.2214-.0373-.296-.112-.0694-.0746-.104-.1893-.104-.344 0-.16.0346-.2746.104-.344.0746-.0746.1733-.112.296-.112h.12c.1226 0 .2213.0374.296.112.0746.0694.112.184.112.344 0 .1547-.0374.2694-.112.344-.0747.0747-.1734.112-.296.112zm-1.128 0c-.1227 0-.2214-.0373-.296-.112-.0694-.0746-.104-.1893-.104-.344 0-.16.0346-.2746.104-.344.0746-.0746.1733-.112.296-.112h.12c.1226 0 .2213.0374.296.112.0746.0694.112.184.112.344 0 .1547-.0374.2694-.112.344-.0747.0747-.1734.112-.296.112z"/><path d="m94.1282 78.9479c-.2027 0-.3787-.0186-.528-.056-.1494-.0426-.288-.1173-.416-.224-.304.1867-.7334.28-1.288.28h-3.4242l.0002-.712.1918-.192h.3842l.264-.44v-4.576h.752v2.552l-.096.936.04.024c.3146-.3893.64-.6613.976-.816.3413-.16.712-.24 1.112-.24.5653 0 .9973.1574 1.296.472.2986.3094.448.7387.448 1.288 0 .2987-.04.552-.12.76.064.016.128.0267.192.032.0693.0054.1413.008.216.008h.192v.712zm-2.232-.904c.448 0 .7733-.056.976-.168.2026-.112.304-.3173.304-.616 0-.576-.32-.864-.96-.864h-.24c-.224 0-.424.016-.6.048s-.3414.088-.496.168c-.1494.08-.2907.1894-.424.328-.1334.1387-.272.3147-.416.528l-.344.528.024.048z"/><path d="m94.1284 78.2359.1918-.192h.1602c.112 0 .2107-.008.296-.024s.16-.0453.224-.088c.064-.0426.1227-.0986.176-.168.0533-.0693.1067-.1573.16-.264l.328-.664.6.304-.368.712.056.032c.16.0907.3147.1574.464.2.1494.0427.3013.064.456.064.24 0 .416-.0533.528-.16.112-.112.168-.304.168-.576v-.576h.696v.576c0 .2614.04.448.12.56.08.1067.2053.16.376.16h.12c.304 0 .456-.1733.456-.52 0-.1706-.024-.416-.072-.736l-.072-.424.688-.104.064.416c.0213.16.0374.312.048.456s.0156.2747.0156.392c0 .4694-.1009.8267-.3036 1.072-.1973.24-.4933.36-.888.36-.3413 0-.6053-.0773-.792-.232-.1867-.1546-.3093-.3893-.368-.704h-.048c-.0907.624-.3866.936-.888.936-.1546 0-.3147-.0293-.48-.088-.16-.0586-.352-.1546-.576-.288l-.216-.128c-.1547.1654-.336.2747-.544.328-.2027.0534-.4616.08-.7762.08z"/><path d="m100.872 73.0279h.744v5.92h-.744z"/><path d="m102.428 79.9639h.464c.56 0 .997-.0906 1.312-.272.315-.176.523-.424.624-.744h-.96c-.432 0-.768-.1173-1.008-.352-.235-.2346-.352-.568-.352-1 0-.256.037-.496.112-.72.08-.224.187-.416.32-.576.139-.1653.301-.296.488-.392s.392-.144.616-.144c.469 0 .835.2 1.096.6.267.4.405.96.416 1.68h.376v.712l-.192.192h-.272c-.133.6134-.413 1.0854-.84 1.416-.421.336-.989.504-1.704.504h-.496zm.744-2.48c0 .1974.061.3414.184.432.123.0854.304.128.544.128h.992v-.152c0-.368-.085-.6613-.256-.88-.171-.224-.392-.336-.664-.336-.245 0-.44.0747-.584.224-.144.1494-.216.344-.216.584z"/><path d="m105.738 78.2359.192-.192h.168c.362 0 .618-.04.768-.12.149-.0853.224-.2373.224-.456 0-.0906-.008-.2053-.024-.344-.011-.1386-.035-.3226-.072-.552l-.128-.696.696-.112.104.696c.064.4267.096.7627.096 1.008 0 .5014-.136.8747-.408 1.12-.272.24-.691.36-1.256.36h-.36zm1.288 2.368c-.123 0-.222-.0373-.296-.112-.07-.0746-.104-.1893-.104-.344 0-.16.034-.2773.104-.352.074-.0693.173-.104.296-.104h.12c.122 0 .221.0347.296.104.074.0747.112.192.112.352 0 .1547-.038.2694-.112.344-.075.0747-.174.112-.296.112z"/></g></svg>