<?xml version="1.0" standalone="no"?>
<!DOCTYPE svg PUBLIC "-//W3C//DTD SVG 1.1//EN" "http://www.w3.org/Graphics/SVG/1.1/DTD/svg11.dtd" >
<svg xmlns="http://www.w3.org/2000/svg">
<metadata>Generated by IcoMoon</metadata>
<defs>
<font id="icomoon" horiz-adv-x="1024">
<font-face units-per-em="1024" ascent="960" descent="-64" />
<missing-glyph horiz-adv-x="1024" />
<glyph unicode="&#x20;" horiz-adv-x="512" d="" />
<glyph unicode="&#xe900;" glyph-name="plus" d="M698.304 682.802c-17.148 0-31.049 13.901-31.049 31.050s13.901 31.049 31.049 31.049h31.049v31.050c0 17.148 13.901 31.050 31.049 31.050s31.053-13.902 31.053-31.050v-31.050h31.049c17.148 0 31.049-13.901 31.049-31.049s-13.901-31.050-31.049-31.050h-31.049v-31.050c0-17.148-13.905-31.050-31.053-31.050s-31.049 13.902-31.049 31.050v31.050h-31.049zM527.531 651.753h-31.049c-51.447 0-93.151-41.704-93.151-93.149v-186.298c0-51.443 41.704-93.15 93.151-93.15h31.049c51.443 0 93.15 41.707 93.15 93.15v186.298c0 51.445-41.707 93.149-93.15 93.149zM558.579 372.305c0-17.148-13.901-31.049-31.049-31.049h-31.049c-17.152 0-31.053 13.901-31.053 31.049v186.298c0 17.148 13.901 31.050 31.053 31.050h31.049c17.148 0 31.049-13.902 31.049-31.050v-186.298zM810.082 558.604c8.158 1.635 16.636-0.075 23.522-4.745 6.891-4.671 11.614-11.911 13.116-20.095 4.608-22.477 6.899-45.367 6.831-68.309 0-188.634-152.913-341.547-341.547-341.547-188.63 0-341.546 152.913-341.546 341.547 0 188.631 152.916 341.546 341.546 341.546 23.108 0.518 46.208-1.356 68.932-5.589 17.148-3.43 28.267-20.111 24.841-37.26-3.43-17.148-20.113-28.269-37.261-24.84-120.9 24.894-243.812-32.483-302.365-141.148-58.553-108.663-38.875-242.875 48.407-330.159 87.283-87.279 221.492-106.957 330.156-48.405 108.668 58.551 166.042 181.466 141.15 302.366-1.651 8.068-0.026 16.465 4.518 23.334 4.54 6.871 11.627 11.657 19.699 13.302z" />
<glyph unicode="&#xe901;" glyph-name="plus1" d="M698.304 682.802c-17.148 0-31.049 13.901-31.049 31.050s13.901 31.049 31.049 31.049h31.049v31.050c0 17.148 13.901 31.050 31.049 31.050s31.053-13.902 31.053-31.050v-31.050h31.049c17.148 0 31.049-13.901 31.049-31.049s-13.901-31.050-31.049-31.050h-31.049v-31.050c0-17.148-13.905-31.050-31.053-31.050s-31.049 13.902-31.049 31.050v31.050h-31.049zM620.681 558.604v-31.052c-0.137-22.976-8.764-45.094-24.222-62.097 15.458-17.003 24.085-39.121 24.222-62.101v-31.049c0-51.443-41.707-93.15-93.15-93.15h-31.049c-51.447 0-93.151 41.707-93.151 93.15 0 17.148 13.902 31.049 31.050 31.049s31.049-13.901 31.049-31.049c0-17.148 13.901-31.049 31.053-31.049h31.049c17.148 0 31.049 13.901 31.049 31.049v31.049c0 17.148-13.901 31.053-31.049 31.053h-15.526c-17.148 0-31.049 13.901-31.049 31.049s13.901 31.049 31.049 31.049h15.526c17.148 0 31.049 13.901 31.049 31.049v31.052c0 17.148-13.901 31.050-31.049 31.050h-31.049c-17.152 0-31.053-13.902-31.053-31.050 0-17.146-13.901-31.052-31.049-31.052s-31.050 13.905-31.050 31.052c0 51.445 41.704 93.149 93.151 93.149h31.049c51.443 0 93.15-41.704 93.15-93.149zM810.082 558.604c8.158 1.635 16.636-0.075 23.522-4.745 6.891-4.671 11.614-11.911 13.116-20.095 4.608-22.477 6.899-45.367 6.831-68.309 0-188.634-152.913-341.547-341.547-341.547-188.63 0-341.546 152.913-341.546 341.547 0 188.631 152.916 341.546 341.546 341.546 23.108 0.518 46.208-1.356 68.932-5.589 17.148-3.43 28.267-20.111 24.841-37.26-3.43-17.148-20.113-28.269-37.261-24.84-120.9 24.894-243.812-32.483-302.365-141.148-58.553-108.663-38.875-242.875 48.407-330.159 87.283-87.279 221.492-106.957 330.156-48.405 108.668 58.551 166.042 181.466 141.15 302.366-1.651 8.068-0.026 16.465 4.518 23.334 4.54 6.871 11.627 11.657 19.699 13.302z" />
<glyph unicode="&#xe902;" glyph-name="plus2" d="M698.304 682.802c-17.148 0-31.049 13.901-31.049 31.050s13.901 31.049 31.049 31.049h31.049v31.050c0 17.148 13.901 31.050 31.049 31.050s31.053-13.902 31.053-31.050v-31.050h31.049c17.148 0 31.049-13.901 31.049-31.049s-13.901-31.050-31.049-31.050h-31.049v-31.050c0-17.148-13.905-31.050-31.053-31.050s-31.049 13.902-31.049 31.050v31.050h-31.049zM496.482 589.653h31.049c17.148 0 31.049-13.902 31.049-31.050 0-17.146 13.901-31.052 31.049-31.052s31.053 13.905 31.053 31.052c0 51.445-41.707 93.149-93.15 93.149h-31.049c-51.447 0-93.151-41.704-93.151-93.149v-186.298c0-51.443 41.704-93.15 93.151-93.15h31.049c51.443 0 93.15 41.707 93.15 93.15v31.049c0 51.447-41.707 93.15-93.15 93.15h-62.101v62.1c0 17.148 13.901 31.050 31.053 31.050zM527.531 434.406c17.148 0 31.049-13.905 31.049-31.053v-31.049c0-17.148-13.901-31.049-31.049-31.049h-31.049c-17.152 0-31.053 13.901-31.053 31.049v62.101h62.101zM810.082 558.604c8.158 1.635 16.636-0.075 23.522-4.745 6.891-4.671 11.614-11.911 13.116-20.095 4.608-22.477 6.899-45.367 6.831-68.309 0-188.634-152.913-341.547-341.547-341.547-188.63 0-341.546 152.913-341.546 341.547 0 188.631 152.916 341.546 341.546 341.546 23.108 0.518 46.208-1.356 68.932-5.589 17.148-3.43 28.267-20.111 24.841-37.26-3.43-17.148-20.113-28.269-37.261-24.84-120.9 24.894-243.812-32.483-302.365-141.148-58.553-108.663-38.875-242.875 48.407-330.159 87.283-87.279 221.492-106.957 330.156-48.405 108.668 58.551 166.042 181.466 141.15 302.366-1.651 8.068-0.026 16.465 4.518 23.334 4.54 6.871 11.627 11.657 19.699 13.302z" />
<glyph unicode="&#xe903;" glyph-name="plus4" d="M698.304 682.802c-17.148 0-31.049 13.901-31.049 31.050s13.901 31.049 31.049 31.049h31.049v31.050c0 17.148 13.901 31.050 31.049 31.050s31.053-13.902 31.053-31.050v-31.050h31.049c17.148 0 31.049-13.901 31.049-31.049s-13.901-31.050-31.049-31.050h-31.049v-31.050c0-17.148-13.905-31.050-31.053-31.050s-31.049 13.902-31.049 31.050v31.050h-31.049zM480.956 558.604v-186.298c0-51.443 41.702-93.15 93.15-93.15h31.049c24.704 0 48.397 9.813 65.865 27.285 17.472 17.468 27.285 41.161 27.285 65.865v186.298c0 51.445-41.707 93.149-93.15 93.149h-31.049c-51.447 0-93.15-41.704-93.15-93.149zM636.203 558.604v-186.298c0-17.148-13.901-31.049-31.049-31.049h-31.049c-17.148 0-31.053 13.901-31.053 31.049v186.298c0 17.148 13.905 31.050 31.053 31.050h31.049c17.148 0 31.049-13.902 31.049-31.050zM810.082 558.604c8.158 1.635 16.636-0.075 23.522-4.745 6.891-4.671 11.614-11.911 13.116-20.095 4.608-22.477 6.899-45.367 6.831-68.309 0-188.634-152.913-341.547-341.547-341.547-188.63 0-341.546 152.913-341.546 341.547 0 188.631 152.916 341.546 341.546 341.546 23.108 0.518 46.208-1.356 68.932-5.589 17.148-3.43 28.267-20.111 24.841-37.26-3.43-17.148-20.113-28.269-37.261-24.84-120.9 24.894-243.812-32.483-302.365-141.148-58.553-108.663-38.875-242.875 48.407-330.159 87.283-87.279 221.492-106.957 330.156-48.405 108.668 58.551 166.042 181.466 141.15 302.366-1.651 8.068-0.026 16.465 4.518 23.334 4.54 6.871 11.627 11.657 19.699 13.302zM356.756 620.703c0 17.149 13.902 31.050 31.050 31.050s31.050-13.901 31.050-31.050v-310.495c0-17.152-13.902-31.053-31.050-31.053s-31.050 13.901-31.050 31.053v310.495z" />
<glyph unicode="&#xe904;" glyph-name="plus5" d="M480.956 558.604c0 51.445 41.702 93.149 93.15 93.149h31.049c51.443 0 93.15-41.704 93.15-93.149v-31.052c0-51.443-41.707-93.146-93.15-93.146h-31.049c-17.148 0-31.053-13.905-31.053-31.053v-62.097h124.203c17.148 0 31.049-13.901 31.049-31.049 0-17.152-13.901-31.053-31.049-31.053h-155.251c-17.148 0-31.049 13.901-31.049 31.053v93.146c0 51.447 41.702 93.15 93.15 93.15h31.049c17.148 0 31.049 13.901 31.049 31.049v31.052c0 17.148-13.901 31.050-31.049 31.050h-31.049c-17.148 0-31.053-13.902-31.053-31.050 0-17.146-13.901-31.052-31.049-31.052s-31.049 13.905-31.049 31.052zM698.304 682.802c-17.148 0-31.049 13.901-31.049 31.050s13.901 31.049 31.049 31.049h31.049v31.050c0 17.148 13.901 31.050 31.049 31.050s31.053-13.902 31.053-31.050v-31.050h31.049c17.148 0 31.049-13.901 31.049-31.049s-13.901-31.050-31.049-31.050h-31.049v-31.050c0-17.148-13.905-31.050-31.053-31.050s-31.049 13.902-31.049 31.050v31.050h-31.049zM356.756 620.703c0 17.149 13.902 31.050 31.050 31.050s31.050-13.901 31.050-31.050v-310.495c0-17.152-13.902-31.053-31.050-31.053s-31.050 13.901-31.050 31.053v310.495zM810.082 558.604c8.158 1.635 16.636-0.075 23.522-4.745 6.891-4.671 11.614-11.911 13.116-20.095 4.608-22.477 6.899-45.367 6.831-68.309 0-188.634-152.913-341.547-341.547-341.547-188.63 0-341.546 152.913-341.546 341.547 0 188.631 152.916 341.546 341.546 341.546 23.108 0.518 46.208-1.356 68.932-5.589 17.148-3.43 28.267-20.111 24.841-37.26-3.43-17.148-20.113-28.269-37.261-24.84-120.9 24.894-243.812-32.483-302.365-141.148-58.553-108.663-38.875-242.875 48.407-330.159 87.283-87.279 221.492-106.957 330.156-48.405 108.668 58.551 166.042 181.466 141.15 302.366-1.651 8.068-0.026 16.465 4.518 23.334 4.54 6.871 11.627 11.657 19.699 13.302z" />
<glyph unicode="&#xe905;" glyph-name="plus6" d="M698.304 682.802c-17.148 0-31.049 13.901-31.049 31.050s13.901 31.049 31.049 31.049h31.049v31.050c0 17.148 13.901 31.050 31.049 31.050s31.053-13.902 31.053-31.050v-31.050h31.049c17.148 0 31.049-13.901 31.049-31.049s-13.901-31.050-31.049-31.050h-31.049v-31.050c0-17.148-13.905-31.050-31.053-31.050s-31.049 13.902-31.049 31.050v31.050h-31.049zM480.956 558.604c0 51.445 41.702 93.149 93.15 93.149h31.049c51.443 0 93.15-41.704 93.15-93.149v-31.052c-0.137-22.976-8.764-45.094-24.218-62.097 15.454-17.003 24.081-39.121 24.218-62.101v-31.049c0-24.704-9.813-48.397-27.285-65.865-17.468-17.472-41.161-27.285-65.865-27.285h-31.049c-51.447 0-93.15 41.707-93.15 93.15 0 17.148 13.901 31.049 31.049 31.049s31.049-13.901 31.049-31.049c0-17.148 13.905-31.049 31.053-31.049h31.049c17.148 0 31.049 13.901 31.049 31.049v31.049c0 17.148-13.901 31.053-31.049 31.053h-15.526c-17.148 0-31.049 13.901-31.049 31.049s13.901 31.049 31.049 31.049h15.526c17.148 0 31.049 13.901 31.049 31.049v31.052c0 17.148-13.901 31.050-31.049 31.050h-31.049c-17.148 0-31.053-13.902-31.053-31.050 0-17.146-13.901-31.052-31.049-31.052s-31.049 13.905-31.049 31.052zM356.756 620.703c0 17.149 13.902 31.050 31.050 31.050s31.050-13.901 31.050-31.050v-310.495c0-17.152-13.902-31.053-31.050-31.053s-31.050 13.901-31.050 31.053v310.495zM810.082 558.604c8.158 1.635 16.636-0.075 23.522-4.745 6.891-4.671 11.614-11.911 13.116-20.095 4.608-22.477 6.899-45.367 6.831-68.309 0-188.634-152.913-341.547-341.547-341.547-188.63 0-341.546 152.913-341.546 341.547 0 188.631 152.916 341.546 341.546 341.546 23.108 0.518 46.208-1.356 68.932-5.589 17.148-3.43 28.267-20.111 24.841-37.26-3.43-17.148-20.113-28.269-37.261-24.84-120.9 24.894-243.812-32.483-302.365-141.148-58.553-108.663-38.875-242.875 48.407-330.159 87.283-87.279 221.492-106.957 330.156-48.405 108.668 58.551 166.042 181.466 141.15 302.366-1.651 8.068-0.026 16.465 4.518 23.334 4.54 6.871 11.627 11.657 19.699 13.302z" />
<glyph unicode="&#xe906;" glyph-name="plus7" d="M698.304 682.802c-17.148 0-31.049 13.901-31.049 31.050s13.901 31.049 31.049 31.049h31.049v31.050c0 17.148 13.901 31.050 31.049 31.050s31.053-13.902 31.053-31.050v-31.050h31.049c17.148 0 31.049-13.901 31.049-31.049s-13.901-31.050-31.049-31.050h-31.049v-31.050c0-17.148-13.905-31.050-31.053-31.050s-31.049 13.902-31.049 31.050v31.050h-31.049zM810.082 558.604c8.158 1.635 16.636-0.075 23.522-4.745 6.891-4.671 11.614-11.911 13.116-20.095 4.608-22.477 6.899-45.367 6.831-68.309 0-188.634-152.913-341.547-341.547-341.547-188.63 0-341.546 152.913-341.546 341.547 0 188.631 152.916 341.546 341.546 341.546 23.108 0.518 46.208-1.356 68.932-5.589 17.148-3.43 28.267-20.111 24.841-37.26-3.43-17.148-20.113-28.269-37.261-24.84-120.9 24.894-243.812-32.483-302.365-141.148-58.553-108.663-38.875-242.875 48.407-330.159 87.283-87.279 221.492-106.957 330.156-48.405 108.668 58.551 166.042 181.466 141.15 302.366-1.651 8.068-0.026 16.465 4.518 23.334 4.54 6.871 11.627 11.657 19.699 13.302zM356.756 620.703c0 17.149 13.902 31.050 31.050 31.050s31.050-13.901 31.050-31.050v-310.495c0-17.152-13.902-31.053-31.050-31.053s-31.050 13.901-31.050 31.053v310.495zM480.956 558.604v-186.298c0-51.443 41.702-93.15 93.15-93.15h31.049c24.704 0 48.397 9.813 65.865 27.285 17.472 17.468 27.285 41.161 27.285 65.865v31.049c0 51.447-41.707 93.15-93.15 93.15h-62.101v62.1c0 17.148 13.905 31.050 31.053 31.050h31.049c17.148 0 31.049-13.902 31.049-31.050 0-17.146 13.901-31.052 31.053-31.052 17.148 0 31.049 13.905 31.049 31.052 0 51.445-41.707 93.149-93.15 93.149h-31.049c-51.447 0-93.15-41.704-93.15-93.149zM605.154 434.406c17.148 0 31.049-13.905 31.049-31.053v-31.049c0-17.148-13.901-31.049-31.049-31.049h-31.049c-17.148 0-31.053 13.901-31.053 31.049v62.101h62.101z" />
<glyph unicode="&#xe907;" glyph-name="plus8" d="M480.956 620.703c0 17.149 13.901 31.053 31.049 31.053h155.251c9.502 0.124 18.539-4.109 24.529-11.491 5.926-7.179 8.32-16.637 6.519-25.771l-62.101-310.497c-2.995-14.69-16.060-25.143-31.049-24.841h-6.208c-8.32 1.493-15.671 6.31-20.356 13.342-4.689 7.031-6.306 15.667-4.484 23.919l55.266 273.237h-86.319v-31.050c0-17.146-13.901-31.052-31.049-31.052s-31.049 13.905-31.049 31.052v62.099zM698.304 682.802c-17.148 0-31.049 13.901-31.049 31.050s13.901 31.049 31.049 31.049h31.049v31.050c0 17.148 13.901 31.050 31.049 31.050s31.053-13.902 31.053-31.050v-31.050h31.049c17.148 0 31.049-13.901 31.049-31.049s-13.901-31.050-31.049-31.050h-31.049v-31.050c0-17.148-13.905-31.050-31.053-31.050s-31.049 13.902-31.049 31.050v31.050h-31.049zM356.756 620.703c0 17.149 13.902 31.050 31.050 31.050s31.050-13.901 31.050-31.050v-310.495c0-17.152-13.902-31.053-31.050-31.053s-31.050 13.901-31.050 31.053v310.495zM810.082 558.604c8.158 1.635 16.636-0.075 23.522-4.745 6.891-4.671 11.614-11.911 13.116-20.095 4.608-22.477 6.899-45.367 6.831-68.309 0-188.634-152.913-341.547-341.547-341.547-188.63 0-341.546 152.913-341.546 341.547 0 188.631 152.916 341.546 341.546 341.546 23.108 0.518 46.208-1.356 68.932-5.589 17.148-3.43 28.267-20.111 24.841-37.26-3.43-17.148-20.113-28.269-37.261-24.84-120.9 24.894-243.812-32.483-302.365-141.148-58.553-108.663-38.875-242.875 48.407-330.159 87.283-87.279 221.492-106.957 330.156-48.405 108.668 58.551 166.042 181.466 141.15 302.366-1.651 8.068-0.026 16.465 4.518 23.334 4.54 6.871 11.627 11.657 19.699 13.302z" />
<glyph unicode="&#xe908;" glyph-name="plus9" d="M698.304 682.802c-17.148 0-31.049 13.901-31.049 31.050s13.901 31.049 31.049 31.049h31.049v31.050c0 17.148 13.901 31.050 31.049 31.050s31.053-13.902 31.053-31.050v-31.050h31.049c17.148 0 31.049-13.901 31.049-31.049s-13.901-31.050-31.049-31.050h-31.049v-31.050c0-17.148-13.905-31.050-31.053-31.050s-31.049 13.902-31.049 31.050v31.050h-31.049zM356.756 620.703c0 17.149 13.902 31.050 31.050 31.050s31.050-13.901 31.050-31.050v-310.495c0-17.152-13.902-31.053-31.050-31.053s-31.050 13.901-31.050 31.053v310.495zM810.082 558.604c8.158 1.635 16.636-0.075 23.522-4.745 6.891-4.671 11.614-11.911 13.116-20.095 4.608-22.477 6.899-45.367 6.831-68.309 0-188.634-152.913-341.547-341.547-341.547-188.63 0-341.546 152.913-341.546 341.547 0 188.631 152.916 341.546 341.546 341.546 23.108 0.518 46.208-1.356 68.932-5.589 17.148-3.43 28.267-20.111 24.841-37.26-3.43-17.148-20.113-28.269-37.261-24.84-120.9 24.894-243.812-32.483-302.365-141.148-58.553-108.663-38.875-242.875 48.407-330.159 87.283-87.279 221.492-106.957 330.156-48.405 108.668 58.551 166.042 181.466 141.15 302.366-1.651 8.068-0.026 16.465 4.518 23.334 4.54 6.871 11.627 11.657 19.699 13.302zM480.956 558.604v-31.052c0.137-22.976 8.764-45.094 24.218-62.097-15.454-17.003-24.081-39.121-24.218-62.101v-31.049c0-24.704 9.813-48.397 27.281-65.865 17.472-17.472 41.165-27.285 65.869-27.285h31.049c24.704 0 48.397 9.813 65.865 27.285 17.472 17.468 27.285 41.161 27.285 65.865v31.049c-0.137 22.98-8.764 45.099-24.218 62.101 15.454 17.003 24.081 39.121 24.218 62.097v31.052c0 51.445-41.707 93.149-93.15 93.149h-31.049c-51.447 0-93.15-41.704-93.15-93.149zM636.203 372.305c0-17.148-13.901-31.049-31.049-31.049h-31.049c-17.148 0-31.053 13.901-31.053 31.049v31.049c0 17.148 13.905 31.053 31.053 31.053h31.049c17.148 0 31.049-13.905 31.049-31.053v-31.049zM636.203 558.604v-31.052c0-17.148-13.901-31.049-31.049-31.049h-31.049c-17.148 0-31.053 13.901-31.053 31.049v31.052c0 17.148 13.905 31.050 31.053 31.050h31.049c17.148 0 31.049-13.902 31.049-31.050z" />
<glyph unicode="&#xe909;" glyph-name="plus10" d="M667.255 279.155c-17.152 0-31.053 13.901-31.053 31.053v310.495c0 17.149 13.901 31.050 31.053 31.050 17.148 0 31.049-13.901 31.049-31.050v-310.495c0-17.152-13.901-31.053-31.049-31.053zM698.304 682.802c-17.148 0-31.049 13.901-31.049 31.050s13.901 31.049 31.049 31.049h31.049v31.050c0 17.148 13.901 31.050 31.049 31.050s31.053-13.902 31.053-31.050v-31.050h31.049c17.148 0 31.049-13.901 31.049-31.049s-13.901-31.050-31.049-31.050h-31.049v-31.050c0-17.148-13.905-31.050-31.053-31.050s-31.049 13.902-31.049 31.050v31.050h-31.049zM810.082 558.604c8.158 1.635 16.636-0.075 23.522-4.745 6.891-4.671 11.614-11.911 13.116-20.095 4.608-22.477 6.899-45.367 6.831-68.309 0-188.634-152.913-341.547-341.547-341.547-188.63 0-341.546 152.913-341.546 341.547 0 188.631 152.916 341.546 341.546 341.546 23.108 0.518 46.208-1.356 68.932-5.589 17.148-3.43 28.267-20.111 24.841-37.26-3.43-17.148-20.113-28.269-37.261-24.84-120.9 24.894-243.812-32.483-302.365-141.148-58.553-108.663-38.875-242.875 48.407-330.159 87.283-87.279 221.492-106.957 330.156-48.405 108.668 58.551 166.042 181.466 141.15 302.366-1.651 8.068-0.026 16.465 4.518 23.334 4.54 6.871 11.627 11.657 19.699 13.302zM449.907 434.406c-17.152 0-31.051-13.905-31.051-31.053v-62.097h124.197c17.152 0 31.053-13.901 31.053-31.049 0-17.152-13.901-31.053-31.053-31.053h-155.247c-17.148 0-31.050 13.901-31.050 31.053v93.146c0 51.447 41.704 93.15 93.151 93.15h31.049c17.148 0 31.049 13.901 31.049 31.049v31.052c0 17.148-13.901 31.050-31.049 31.050h-31.049c-17.152 0-31.051-13.902-31.051-31.050 0-17.146-13.902-31.052-31.050-31.052s-31.050 13.905-31.050 31.052c0 51.445 41.704 93.149 93.151 93.149h31.049c51.443 0 93.15-41.704 93.15-93.149v-31.052c0-51.443-41.707-93.146-93.15-93.146h-31.049z" />
<glyph unicode="&#xe90a;" glyph-name="px" d="M349.362 379.58l-1.626 0.977c-2.277 6.502 3.578 12.032 15.613 15.936s19.192 2.603 21.794-4.228c7.713-22.238 19.641-42.778 35.13-60.501v123.605c0.228 31.991 13.642 62.473 37.083 84.25 24.158 24.514 57.318 38.037 91.729 37.408 34.231 0.683 67.209-12.863 91.081-37.408 24.73-23.497 38.426-56.32 37.73-90.428 1.015-34.833-12.681-68.484-37.73-92.706-23.906-24.533-56.832-38.174-91.081-37.734-13.769-0.038-27.465 1.933-40.661 5.858-6.831 2.603-8.457 9.758-4.553 22.118s9.105 17.566 15.936 15.612h4.881l12.036-2.274h11.059c23.834-0.35 46.805 8.896 63.753 25.655 16.943 16.764 26.441 39.633 26.351 63.471 0.742 22.989-8.094 45.252-24.397 61.478-17.079 17.374-40.713 26.709-65.058 25.698-24.951 0.717-48.883-9.933-65.054-28.954-14.703-15.842-22.938-36.612-23.095-58.223v-151.258c26.415-16.188 56.845-24.64 87.825-24.397 22.972-0.085 45.739 4.335 67.008 13.013 43.337 18.449 77.359 53.649 94.332 97.583 8.614 20.621 13.141 42.714 13.338 65.058 0.265 45.978-18.308 90.057-51.396 121.98-32.175 34.008-77.116 52.999-123.93 52.371-46.345 0.87-90.978-17.502-123.284-50.744-10.342-9.925-19.709-20.817-27.974-32.526-1.31-2.005-2.837-3.861-4.554-5.534-2.417-1.562-5.046-2.765-7.807-3.575-4.556-1.404-9.431-1.404-13.987 0-4.803 1.007-9.344 2.999-13.337 5.854-3.259 2.219-5.303 5.824-5.53 9.758v246.565c-0.038 3.545 1.371 6.952 3.903 9.434 2.42 2.848 6.026 4.41 9.759 4.228h318.452c7.155 0 11.383-6.505 11.383-19.842s-3.904-20.167-11.059-20.167h-294.38v-175.328c11.27 11.447 23.697 21.694 37.082 30.577 12.263 8.624 25.336 16.032 39.032 22.119 26.496 11.525 55.036 17.609 83.925 17.891 56.559 0.3 110.857-22.215 150.605-62.454 19.605-19.177 35.2-42.067 45.867-67.333 10.884-26.415 16.521-54.703 16.589-83.273 0.717-28.698-4.373-57.242-14.963-83.925-10.658-25.365-26.249-48.363-45.867-67.657-19.452-19.345-42.415-34.803-67.657-45.538-26.167-11.362-54.421-17.122-82.948-16.917-28.425-0.239-56.576 5.525-82.62 16.917-25.348 10.726-48.418 26.185-67.986 45.538-19.456 19.294-34.833 42.3-45.214 67.657-2.634 4.429-4.503 9.267-5.53 14.315zM552.661 737.39h-1.626c39.552-0.399 78.613-8.809 114.825-24.721 31.514-12.992 60.395-31.621 85.227-54.973 1.882-1.669 3.046-3.999 3.255-6.506 0.047-2.421-0.631-4.802-1.954-6.831l-6.182-6.18c-6.178-6.18-11.059-9.433-13.986-9.433-2.227 0.029-4.343 0.97-5.854 2.602-22.336 19.933-47.697 36.184-75.14 48.142-31.586 13.795-65.724 20.777-100.19 20.493-32.602-0.008-64.922-6.074-95.305-17.891-6.507-2.277-11.712 1.952-16.265 13.337-1.788 4.455-2.782 9.189-2.931 13.987 0.461 3.87 3.597 6.871 7.484 7.156 34.351 14.492 71.369 21.586 108.642 20.818zM500.292 415.036h-1.626c0.448 2.667 1.83 5.090 3.904 6.831l24.068 23.42-24.068 24.073c-3.904 3.9-2.278 9.105 5.205 16.265 2.773 3.435 6.703 5.747 11.059 6.502 1.741-0.094 3.426-0.657 4.877-1.626l23.42-24.073 23.748 23.424c4.228 4.228 10.406 1.95 17.237-4.557 6.831-6.502 8.132-12.036 4.233-15.936l-24.073-24.073 22.771-22.771c5.201-5.201 4.228-11.059-2.278-17.89-3.029-3.405-7.189-5.602-11.712-6.178-2.692 0.119-5.193 1.434-6.831 3.575l-22.767 22.123-23.748-23.748c-1.519-1.344-3.503-2.044-5.53-1.95-4.416 0.384-8.503 2.487-11.383 5.854-3.639 2.453-6.016 6.374-6.507 10.735zM758.242 266.381h-1.626c8.457-8.781 10.735-15.94 7.804-23.095l-1.95-1.95c-26.756-27.652-58.701-49.762-94.007-65.058-36.501-15.164-75.622-23.010-115.149-23.095-39.539-0.043-78.686 7.808-115.149 23.095-35.308 15.296-67.252 37.406-94.008 65.058-27.723 26.569-49.844 58.423-65.057 93.679-9.436 21.943-15.996 45.013-19.517 68.638-0.976 6.502 4.879 11.059 17.24 13.009s20.493-0.649 20.493-7.479c3.617-19.695 9.174-38.98 16.589-57.579 13.146-30.844 32.527-58.641 56.925-81.643 74.26-73.89 185.79-95.603 282.345-54.976 30.464 12.966 58.176 31.625 81.647 54.976l2.274 2.274c2.381 2.385 5.888 3.264 9.109 2.278 4.471-1.958 8.55-4.715 12.036-8.132z" />
<glyph unicode="&#xe90b;" glyph-name="abacus" d="M819.396 807.002c-18.863 0-34.155-15.291-34.155-34.155v-102.464h-136.619v34.155c0 18.863-15.292 34.155-34.155 34.155s-34.155-15.291-34.155-34.155v-34.155h-68.309v34.155c0 18.863-15.292 34.155-34.155 34.155s-34.155-15.291-34.155-34.155v-34.155h-68.308v34.155c0 18.863-15.292 34.155-34.155 34.155s-34.155-15.291-34.155-34.155v-34.155h-68.309v102.464c0 18.863-15.292 34.155-34.155 34.155s-34.155-15.291-34.155-34.155v-546.475c0-56.589 45.875-102.464 102.464-102.464h478.164c56.589 0 102.464 45.875 102.464 102.464v546.475c0 18.863-15.292 34.155-34.155 34.155zM785.242 226.372c0-18.863-15.292-34.155-34.155-34.155h-478.164c-18.863 0-34.155 15.292-34.155 34.155v102.464h68.309v-34.155c0-18.863 15.291-34.155 34.155-34.155s34.155 15.292 34.155 34.155v34.155h68.308v-34.155c0-18.863 15.292-34.155 34.155-34.155s34.155 15.292 34.155 34.155v34.155h136.619v-34.155c0-18.863 15.292-34.155 34.155-34.155s34.155 15.292 34.155 34.155v34.155h68.309v-102.464zM785.242 397.146h-68.309v34.155c0 18.863-15.292 34.155-34.155 34.155s-34.155-15.292-34.155-34.155v-34.155h-136.619v34.155c0 18.863-15.292 34.155-34.155 34.155s-34.155-15.292-34.155-34.155v-34.155h-68.308v34.155c0 18.863-15.292 34.155-34.155 34.155s-34.155-15.292-34.155-34.155v-34.155h-68.309v204.928h68.309v-34.155c0-18.863 15.291-34.155 34.155-34.155s34.155 15.292 34.155 34.155v34.155h68.308v-34.155c0-18.863 15.292-34.155 34.155-34.155s34.155 15.292 34.155 34.155v34.155h68.309v-34.155c0-18.863 15.292-34.155 34.155-34.155s34.155 15.292 34.155 34.155v34.155h136.619v-204.928z" />
<glyph unicode="&#xe90c;" glyph-name="accessible-icon-alt" d="M648.619 670.383c-37.73 0-68.309 30.583-68.309 68.309s30.579 68.309 68.309 68.309c37.726 0 68.309-30.583 68.309-68.309s-30.583-68.309-68.309-68.309zM535.906 281.020c11.319 15.091 32.725 18.15 47.817 6.831s18.15-32.725 6.831-47.817c-38.703-51.601-99.439-81.971-163.942-81.971-113.178-6.319-210.051 80.307-216.369 193.485-6.319 113.182 80.307 210.052 193.486 216.371 18.863 2.075 35.837-11.535 37.911-30.396 2.078-18.863-11.533-35.84-30.397-37.914-61.658-7.313-110.632-55.283-119.217-116.779-8.585-61.491 25.377-121.041 82.675-144.964 57.296-23.919 123.519-6.191 161.207 43.153zM768.158 226.372l1.707 1.365c18.863 0 34.155-15.292 34.155-34.155s-15.292-34.155-34.155-34.155h-68.309c-18.863 0-34.155 15.292-34.155 34.155v170.773h-170.773c-3.959 0.004-7.889 0.7-11.61 2.052-2.287 1.161-4.459 2.534-6.49 4.096-1.715 0.823-3.324 1.856-4.783 3.076-1.557 1.591-2.829 3.439-3.759 5.461l-3.755 5.124c-1.19 4.262-2.103 8.597-2.735 12.979-0.32 2.035-0.32 4.113 0 6.148-0.162 1.818-0.162 3.648 0 5.466l64.555 177.945-110.662 64.211-76.165-44.401c-5.406-3.069-11.546-4.604-17.76-4.44-15.427 0.199-28.806 10.716-32.641 25.66s2.823 30.604 16.247 38.209l91.876 53.623h3.757c2.161 1.097 4.458 1.9 6.831 2.391h13.662c2.223-0.478 4.397-1.164 6.487-2.049h4.1l153.011-88.119c2.735-0.683 2.735-2.732 2.735-2.732 1.929-1.204 3.657-2.703 5.124-4.44 1.468-1.538 2.731-3.26 3.755-5.123 1.156-1.863 2.185-3.803 3.076-5.807 0.192-2.159 0.192-4.33 0-6.489 0.166-2.046 0.166-4.102 0-6.148v-6.831c0-1.366 0-3.757 0-3.757l-57.724-159.161h156.087c18.863 0 34.155-15.292 34.155-34.155v-170.773h34.155z" />
<glyph unicode="&#xe90d;" glyph-name="adjust-alt" d="M659.887 625.301c0.183 0.902 0.183 1.831 0 2.732-27.366 50.616-67.076 93.497-115.443 124.665-55.407 35.904-120.122 54.784-186.143 54.306-18.863 0-34.155-15.292-34.155-34.155v-614.786c0-18.863 15.291-34.155 34.155-34.155h9.563c118.041 3.371 225.967 67.473 285.397 169.515 59.435 102.042 61.939 227.546 6.626 331.878zM392.455 736.645c29.536-3.735 58.263-12.273 85.044-25.274l-85.044-147.548v172.823zM392.455 427.204l142.427 246.596c21.090-17.938 39.292-39.020 53.961-62.503l-196.387-340.18v156.087zM432.073 202.808l190.925 330.957c5.594-22.34 8.461-45.278 8.542-68.309 0.503-122.564-81.263-230.234-199.467-262.647z" />
<glyph unicode="&#xe90e;" glyph-name="adjust-circle" d="M682.765 636.23c-43.499 113.299-158.558 182.424-279.014 167.631-120.458-14.793-215.369-109.705-230.163-230.163-14.793-120.46 54.333-235.514 167.631-279.013 43.501-113.301 158.557-182.426 279.014-167.633 120.461 14.793 215.373 109.705 230.165 230.161 14.793 120.461-54.332 235.516-167.633 279.017zM628.117 581.583c2.466-12.832 3.725-25.868 3.759-38.935-0.073-15.415-1.907-30.771-5.466-45.769l-83.337 82.655c14.997 3.561 30.353 5.394 45.764 5.465 13.069-0.032 26.103-1.29 38.938-3.757l0.341 0.341zM596.015 431.305c-13.619-19.379-30.49-36.254-49.869-49.869l-118.174 118.178c13.615 19.375 30.485 36.25 49.865 49.865l118.178-118.174zM322.775 381.436c-64.695 44.753-96.444 123.793-80.683 200.861 15.761 77.070 75.99 137.299 153.060 153.060s156.109-15.988 200.862-80.683h-8.542c-146.108-0.94-263.899-119.954-263.331-266.066 0-2.731 0.342-5.807 0.342-8.538l-1.708 1.365zM394.5 351.040c-2.467 12.83-3.724 25.869-3.757 38.933 0.071 15.415 1.905 30.771 5.465 45.769l82.994-82.995c-14.997-3.558-30.353-5.393-45.764-5.466-12.457-0.311-24.916 0.486-37.23 2.394l-1.708 1.365zM588.838 192.222c-64.892 0.119-125.568 32.183-162.233 85.726h8.539c145.98 0.188 264.324 118.379 264.7 264.358 0 2.731 0 5.807 0 8.538 71.219-48.585 102.426-137.941 76.932-220.305-25.493-82.359-101.722-138.462-187.938-138.317z" />
<glyph unicode="&#xe90f;" glyph-name="adjust-half" d="M815.488 617.688c-26.377 49.298-64.887 91.057-111.898 121.33-116.681 75.063-268.13 67.857-377.157-17.948s-151.629-231.317-106.094-362.372c45.535-131.059 169.184-218.807 307.925-218.526h9.434c112.363 3.315 215.044 64.41 271.569 161.574s58.88 216.627 6.221 315.941zM495.735 207.505c-129.3 17.22-225.876 127.509-225.876 257.95 0 130.444 96.576 240.732 225.876 257.95v-515.9zM560.794 723.405c28.122-3.597 55.475-11.726 80.994-24.071l-80.994-140.197v164.268zM560.794 430.652l135.642 233.227c19.998-17.173 37.321-37.237 51.396-59.527l-187.038-323.98v150.281zM598.199 216.614l181.833 313.899c5.5-21.252 8.341-43.106 8.461-65.058-0.085-116.715-77.871-219.098-190.293-250.466v1.626z" />
<glyph unicode="&#xe910;" glyph-name="adjust" d="M512.004 807.002c-188.63 0-341.546-152.916-341.546-341.547 0-188.629 152.916-341.547 341.546-341.547 188.634 0 341.547 152.917 341.547 341.547 0 90.584-35.985 177.458-100.036 241.51s-150.925 100.037-241.51 100.037zM477.85 194.607c-135.765 18.082-237.17 133.884-237.17 270.848s101.405 252.768 237.17 270.847v-541.695zM546.159 194.607v541.695c135.765-18.079 237.171-133.882 237.171-270.847s-101.406-252.766-237.171-270.848z" />
<glyph unicode="&#xe911;" glyph-name="adobe-alt" d="M474.799 750.491c-5.508 8.232-14.763 13.168-24.67 13.168h-220.513c-7.877 0-15.433-3.127-21.003-8.697s-8.696-13.126-8.696-21.003v-537.030c0-14.187 10.035-26.394 23.954-29.137 13.918-2.748 27.836 4.732 33.227 17.856l220.513 537.029c3.755 9.161 2.701 19.591-2.812 27.815zM259.316 347.456v356.803h146.512l-146.512-356.803zM823.612 763.658h-223.27c-9.946 0-19.23-4.986-24.73-13.272-5.504-8.285-6.494-18.775-2.637-27.942l223.27-530.128c4.625-11.017 15.403-18.185 27.349-18.185 1.98 0.004 3.951 0.201 5.888 0.58 13.858 2.807 23.821 14.98 23.829 29.12v530.127c0 7.878-3.127 15.433-8.7 21.003-5.568 5.57-13.124 8.697-21.001 8.697v0zM793.911 350.878l-148.834 353.381h148.834v-353.381zM555.051 539.11c-4.326 11.46-15.245 19.083-27.494 19.201h-0.29c-12.139 0-23.053-7.383-27.567-18.65l-90.855-226.633c-3.668-9.152-2.556-19.524 2.968-27.691s14.741-13.060 24.599-13.060h66.957l45.214-88.806c5.060-9.967 15.292-16.243 26.466-16.243h77.602c9.754 0 18.884 4.791 24.431 12.813 5.547 8.026 6.801 18.261 3.354 27.388l-125.385 331.682zM593.263 226.624l-45.214 88.811c-5.060 9.967-15.292 16.243-26.466 16.243h-41.276l46.148 115.085 83.209-220.139h-16.401z" />
<glyph unicode="&#xe912;" glyph-name="adobe" d="M411.932 285.116l100.073 253.086 141.402-370.577h-86.754l-59.772 117.491h-94.948zM170.458 772.846h253.428l-253.428-614.783v614.783zM596.71 772.846h256.841v-608.293l-256.841 608.293z" />
<glyph unicode="&#xe913;" glyph-name="airplay" d="M540.352 415.932c-6.345 9.442-16.973 15.104-28.348 15.104s-22.003-5.662-28.348-15.104l-136.619-204.928c-6.101-10.569-6.101-23.586 0-34.155 5.439-10.854 16.232-18.005 28.349-18.786h273.236c12.591 0.034 24.141 6.993 30.059 18.103 5.581 10.871 4.928 23.893-1.711 34.155l-136.619 205.611zM439.258 226.372l72.747 109.295 72.751-109.295h-145.498zM751.087 772.848c56.589 0 102.464-45.875 102.464-102.464v-307.393c0-56.589-45.875-102.464-102.464-102.464h-29.030c-18.863 0-34.155 15.292-34.155 34.155s15.292 34.155 34.155 34.155h29.030c18.863 0 34.155 15.292 34.155 34.155v307.393c0 18.863-15.292 34.155-34.155 34.155h-478.164c-18.863 0-34.155-15.292-34.155-34.155v-307.393c0-18.863 15.291-34.155 34.155-34.155h29.031c18.863 0 34.155-15.292 34.155-34.155s-15.291-34.155-34.155-34.155h-29.031c-56.589 0-102.464 45.875-102.464 102.464v307.393c0 56.589 45.875 102.464 102.464 102.464h478.164z" />
<glyph unicode="&#xe914;" glyph-name="align-alt" d="M443.695 499.61c18.863 0 34.155-15.292 34.155-34.155s-15.292-34.155-34.155-34.155h-239.082c-18.863 0-34.155 15.292-34.155 34.155s15.291 34.155 34.155 34.155h239.082zM443.695 226.372c18.863 0 34.155-15.292 34.155-34.155s-15.292-34.155-34.155-34.155h-239.082c-18.863 0-34.155 15.292-34.155 34.155s15.291 34.155 34.155 34.155h239.082zM580.314 704.536c-18.863 0-34.155 15.291-34.155 34.155s15.292 34.155 34.155 34.155h239.083c18.863 0 34.155-15.292 34.155-34.155s-15.292-34.155-34.155-34.155h-239.083zM443.695 636.227c18.863 0 34.155-15.292 34.155-34.155s-15.292-34.155-34.155-34.155h-239.082c-18.863 0-34.155 15.291-34.155 34.155s15.291 34.155 34.155 34.155h239.082zM443.695 362.991c18.863 0 34.155-15.292 34.155-34.155s-15.292-34.155-34.155-34.155h-239.082c-18.863 0-34.155 15.292-34.155 34.155s15.291 34.155 34.155 34.155h239.082zM443.695 772.846c18.863 0 34.155-15.292 34.155-34.155s-15.292-34.155-34.155-34.155h-102.463c-18.863 0-34.155 15.291-34.155 34.155s15.291 34.155 34.155 34.155h102.463zM819.396 636.227c18.863 0 34.155-15.292 34.155-34.155s-15.292-34.155-34.155-34.155h-239.083c-18.863 0-34.155 15.291-34.155 34.155s15.292 34.155 34.155 34.155h239.083zM819.396 499.61c18.863 0 34.155-15.292 34.155-34.155s-15.292-34.155-34.155-34.155h-239.083c-18.863 0-34.155 15.292-34.155 34.155s15.292 34.155 34.155 34.155h239.083zM682.778 226.372c18.863 0 34.155-15.292 34.155-34.155s-15.292-34.155-34.155-34.155h-102.464c-18.863 0-34.155 15.292-34.155 34.155s15.292 34.155 34.155 34.155h102.464zM819.396 362.991c18.863 0 34.155-15.292 34.155-34.155s-15.292-34.155-34.155-34.155h-239.083c-18.863 0-34.155 15.292-34.155 34.155s15.292 34.155 34.155 34.155h239.083z" />
<glyph unicode="&#xe915;" glyph-name="align-center-alt" d="M272.922 602.073c-18.863 0-34.155 15.291-34.155 34.155s15.291 34.155 34.155 34.155h478.164c18.863 0 34.155-15.292 34.155-34.155s-15.292-34.155-34.155-34.155h-478.164zM819.396 499.61c18.863 0 34.155-15.292 34.155-34.155s-15.292-34.155-34.155-34.155h-614.783c-18.863 0-34.155 15.292-34.155 34.155s15.291 34.155 34.155 34.155h614.783zM751.087 328.836c18.863 0 34.155-15.292 34.155-34.155s-15.292-34.155-34.155-34.155h-478.164c-18.863 0-34.155 15.292-34.155 34.155s15.291 34.155 34.155 34.155h478.164z" />
<glyph unicode="&#xe916;" glyph-name="align-center-h" d="M850.816 478.43c3.418-8.316 3.418-17.643 0-25.954-1.626-4.194-4.062-8.026-7.172-11.273l-85.389-85.389c-6.413-6.464-15.142-10.103-24.247-10.103-9.109 0-17.839 3.639-24.252 10.103-6.464 6.413-10.103 15.142-10.103 24.252 0 9.105 3.639 17.835 10.103 24.247l27.324 26.982h-88.461c-18.863 0-34.155 15.292-34.155 34.155s15.292 34.155 34.155 34.155h88.461l-27.324 26.982c-8.661 8.666-12.045 21.291-8.875 33.127s12.416 21.079 24.247 24.25c11.836 3.171 24.465-0.212 33.126-8.876l85.389-85.387c3.11-3.247 5.547-7.078 7.172-11.273zM375.383 499.605c18.863 0 34.155-15.292 34.155-34.155s-15.291-34.155-34.155-34.155h-88.46l27.324-26.982c6.466-6.413 10.103-15.142 10.103-24.247 0-9.109-3.637-17.839-10.103-24.252-6.413-6.464-15.143-10.099-24.25-10.099s-17.837 3.635-24.25 10.099l-85.387 85.389c-3.11 3.247-5.547 7.078-7.173 11.273-3.416 8.311-3.416 17.638 0 25.954 1.626 4.194 4.063 8.026 7.173 11.273l85.387 85.387c13.393 13.393 35.107 13.393 48.5 0s13.393-35.108 0-48.501l-27.324-26.982h88.46zM512 636.226c18.863 0 34.155-15.291 34.155-34.155v-273.239c0-18.863-15.292-34.155-34.155-34.155s-34.155 15.292-34.155 34.155v273.239c0 18.863 15.292 34.155 34.155 34.155z" />
<glyph unicode="&#xe917;" glyph-name="align-center-justify" d="M819.396 362.991c18.863 0 34.155-15.292 34.155-34.155s-15.292-34.155-34.155-34.155h-614.783c-18.863 0-34.155 15.292-34.155 34.155s15.291 34.155 34.155 34.155h614.783zM204.613 704.536c-18.863 0-34.155 15.291-34.155 34.155s15.291 34.155 34.155 34.155h614.783c18.863 0 34.155-15.292 34.155-34.155s-15.292-34.155-34.155-34.155h-614.783zM682.778 226.372c18.863 0 34.155-15.292 34.155-34.155s-15.292-34.155-34.155-34.155h-341.546c-18.863 0-34.155 15.292-34.155 34.155s15.291 34.155 34.155 34.155h341.546zM819.396 636.227c18.863 0 34.155-15.292 34.155-34.155s-15.292-34.155-34.155-34.155h-614.783c-18.863 0-34.155 15.291-34.155 34.155s15.291 34.155 34.155 34.155h614.783zM819.396 499.61c18.863 0 34.155-15.292 34.155-34.155s-15.292-34.155-34.155-34.155h-614.783c-18.863 0-34.155 15.292-34.155 34.155s15.291 34.155 34.155 34.155h614.783z" />
<glyph unicode="&#xe918;" glyph-name="align-center-v" d="M450.867 663.209c-13.393-13.393-35.108-13.393-48.501 0s-13.393 35.107 0 48.5l85.387 85.387c3.247 3.11 7.078 5.547 11.273 7.173 8.316 3.416 17.643 3.416 25.954 0 4.194-1.626 8.026-4.063 11.273-7.173l85.389-85.387c6.464-6.413 10.099-15.143 10.099-24.25s-3.635-17.837-10.099-24.25c-6.413-6.466-15.142-10.103-24.252-10.103-9.105 0-17.835 3.637-24.247 10.103l-26.982 27.324v-88.46c0-18.863-15.292-34.155-34.155-34.155s-34.155 15.291-34.155 34.155v88.46l-26.982-27.324zM648.623 499.61c18.863 0 34.155-15.292 34.155-34.155s-15.292-34.155-34.155-34.155h-273.239c-18.863 0-34.155 15.292-34.155 34.155s15.291 34.155 34.155 34.155h273.239zM573.141 267.699c8.661 8.661 21.291 12.045 33.122 8.875 11.836-3.17 21.082-12.416 24.252-24.247 3.17-11.836-0.213-24.465-8.875-33.126l-85.389-85.389c-3.247-3.11-7.078-5.547-11.273-7.172-8.265-3.652-17.69-3.652-25.954 0-4.194 1.626-8.026 4.062-11.273 7.172l-85.387 85.389c-8.663 8.661-12.047 21.291-8.876 33.126 3.171 11.831 12.415 21.077 24.25 24.247 11.837 3.17 24.462-0.213 33.127-8.875l26.982-27.324v88.461c0 18.863 15.292 34.155 34.155 34.155s34.155-15.292 34.155-34.155v-88.461l26.982 27.324z" />
<glyph unicode="&#xe919;" glyph-name="align-center" d="M204.613 636.229c-18.863 0-34.155 15.291-34.155 34.155s15.291 34.155 34.155 34.155h614.783c18.863 0 34.155-15.292 34.155-34.155s-15.292-34.155-34.155-34.155h-614.783zM341.232 567.92h341.546c18.863 0 34.155-15.292 34.155-34.156s-15.292-34.155-34.155-34.155h-341.546c-18.863 0-34.155 15.292-34.155 34.155s15.291 34.156 34.155 34.156zM819.396 431.3c18.863 0 34.155-15.292 34.155-34.155s-15.292-34.155-34.155-34.155h-614.783c-18.863 0-34.155 15.292-34.155 34.155s15.291 34.155 34.155 34.155h614.783zM682.778 294.682c18.863 0 34.155-15.292 34.155-34.155s-15.292-34.155-34.155-34.155h-341.546c-18.863 0-34.155 15.292-34.155 34.155s15.291 34.155 34.155 34.155h341.546z" />
<glyph unicode="&#xe91a;" glyph-name="align-justify" d="M204.613 636.229c-18.863 0-34.155 15.291-34.155 34.155s15.291 34.155 34.155 34.155h614.783c18.863 0 34.155-15.292 34.155-34.155s-15.292-34.155-34.155-34.155h-614.783zM819.396 294.682c18.863 0 34.155-15.292 34.155-34.155s-15.292-34.155-34.155-34.155h-614.783c-18.863 0-34.155 15.292-34.155 34.155s15.291 34.155 34.155 34.155h614.783zM819.396 431.3c18.863 0 34.155-15.292 34.155-34.155s-15.292-34.155-34.155-34.155h-614.783c-18.863 0-34.155 15.292-34.155 34.155s15.291 34.155 34.155 34.155h614.783zM819.396 567.92c18.863 0 34.155-15.292 34.155-34.156s-15.292-34.155-34.155-34.155h-614.783c-18.863 0-34.155 15.292-34.155 34.155s15.291 34.156 34.155 34.156h614.783z" />
<glyph unicode="&#xe91b;" glyph-name="align-left-justify" d="M204.613 704.536c-18.863 0-34.155 15.291-34.155 34.155s15.291 34.155 34.155 34.155h614.783c18.863 0 34.155-15.292 34.155-34.155s-15.292-34.155-34.155-34.155h-614.783zM614.468 226.372c18.863 0 34.155-15.292 34.155-34.155s-15.292-34.155-34.155-34.155h-409.855c-18.863 0-34.155 15.292-34.155 34.155s15.291 34.155 34.155 34.155h409.855zM819.396 499.61c18.863 0 34.155-15.292 34.155-34.155s-15.292-34.155-34.155-34.155h-614.783c-18.863 0-34.155 15.292-34.155 34.155s15.291 34.155 34.155 34.155h614.783zM819.396 636.227c18.863 0 34.155-15.292 34.155-34.155s-15.292-34.155-34.155-34.155h-614.783c-18.863 0-34.155 15.291-34.155 34.155s15.291 34.155 34.155 34.155h614.783zM819.396 362.991c18.863 0 34.155-15.292 34.155-34.155s-15.292-34.155-34.155-34.155h-614.783c-18.863 0-34.155 15.292-34.155 34.155s15.291 34.155 34.155 34.155h614.783z" />
<glyph unicode="&#xe91c;" glyph-name="align-left" d="M204.613 636.229c-18.863 0-34.155 15.291-34.155 34.155s15.291 34.155 34.155 34.155h614.783c18.863 0 34.155-15.292 34.155-34.155s-15.292-34.155-34.155-34.155h-614.783zM204.613 499.61c-18.863 0-34.155 15.292-34.155 34.155s15.291 34.156 34.155 34.156h478.164c18.863 0 34.155-15.292 34.155-34.156s-15.292-34.155-34.155-34.155h-478.164zM819.396 431.3c18.863 0 34.155-15.292 34.155-34.155s-15.292-34.155-34.155-34.155h-614.783c-18.863 0-34.155 15.292-34.155 34.155s15.291 34.155 34.155 34.155h614.783zM682.778 294.682c18.863 0 34.155-15.292 34.155-34.155s-15.292-34.155-34.155-34.155h-478.164c-18.863 0-34.155 15.292-34.155 34.155s15.291 34.155 34.155 34.155h478.164z" />
<glyph unicode="&#xe91d;" glyph-name="align-letter-right" d="M443.695 738.692c-18.863 0-34.154 15.292-34.154 34.155s15.291 34.155 34.154 34.155h375.701c18.863 0 34.155-15.291 34.155-34.155s-15.292-34.155-34.155-34.155h-375.701zM819.396 192.218c18.863 0 34.155-15.292 34.155-34.155s-15.292-34.155-34.155-34.155h-614.783c-18.863 0-34.155 15.292-34.155 34.155s15.291 34.155 34.155 34.155h614.783zM819.396 670.383c18.863 0 34.155-15.291 34.155-34.154s-15.292-34.155-34.155-34.155h-614.783c-18.863 0-34.155 15.291-34.155 34.155s15.291 34.154 34.155 34.154h614.783zM819.396 328.836c18.863 0 34.155-15.292 34.155-34.155s-15.292-34.155-34.155-34.155h-341.547c-18.863 0-34.155 15.292-34.155 34.155s15.292 34.155 34.155 34.155h341.547zM819.396 533.764c18.863 0 34.155-15.292 34.155-34.155s-15.292-34.155-34.155-34.155h-614.783c-18.863 0-34.155 15.292-34.155 34.155s15.291 34.155 34.155 34.155h614.783z" />
<glyph unicode="&#xe91e;" glyph-name="align-right-justify" d="M204.613 704.536c-18.863 0-34.155 15.291-34.155 34.155s15.291 34.155 34.155 34.155h614.783c18.863 0 34.155-15.292 34.155-34.155s-15.292-34.155-34.155-34.155h-614.783zM819.396 226.372c18.863 0 34.155-15.292 34.155-34.155s-15.292-34.155-34.155-34.155h-341.547c-18.863 0-34.155 15.292-34.155 34.155s15.292 34.155 34.155 34.155h341.547zM819.396 499.61c18.863 0 34.155-15.292 34.155-34.155s-15.292-34.155-34.155-34.155h-614.783c-18.863 0-34.155 15.292-34.155 34.155s15.291 34.155 34.155 34.155h614.783zM819.396 362.991c18.863 0 34.155-15.292 34.155-34.155s-15.292-34.155-34.155-34.155h-614.783c-18.863 0-34.155 15.292-34.155 34.155s15.291 34.155 34.155 34.155h614.783zM819.396 636.227c18.863 0 34.155-15.292 34.155-34.155s-15.292-34.155-34.155-34.155h-614.783c-18.863 0-34.155 15.291-34.155 34.155s15.291 34.155 34.155 34.155h614.783z" />
<glyph unicode="&#xe91f;" glyph-name="align-right" d="M204.613 636.229c-18.863 0-34.155 15.291-34.155 34.155s15.291 34.155 34.155 34.155h614.783c18.863 0 34.155-15.292 34.155-34.155s-15.292-34.155-34.155-34.155h-614.783zM819.396 294.682c18.863 0 34.155-15.292 34.155-34.155s-15.292-34.155-34.155-34.155h-478.164c-18.863 0-34.155 15.292-34.155 34.155s15.291 34.155 34.155 34.155h478.164zM819.396 567.92c18.863 0 34.155-15.292 34.155-34.156s-15.292-34.155-34.155-34.155h-478.164c-18.863 0-34.155 15.292-34.155 34.155s15.291 34.156 34.155 34.156h478.164zM819.396 431.3c18.863 0 34.155-15.292 34.155-34.155s-15.292-34.155-34.155-34.155h-614.783c-18.863 0-34.155 15.292-34.155 34.155s15.291 34.155 34.155 34.155h614.783z" />
<glyph unicode="&#xe920;" glyph-name="align" d="M204.613 362.991c-18.863 0-34.155 15.292-34.155 34.155s15.291 34.155 34.155 34.155h341.546c18.863 0 34.155-15.292 34.155-34.155s-15.292-34.155-34.155-34.155h-341.546zM204.613 499.61c-18.863 0-34.155 15.292-34.155 34.155s15.291 34.156 34.155 34.156h341.546c18.863 0 34.155-15.292 34.155-34.156s-15.292-34.155-34.155-34.155h-341.546zM204.613 636.229c-18.863 0-34.155 15.291-34.155 34.155s15.291 34.155 34.155 34.155h614.783c18.863 0 34.155-15.292 34.155-34.155s-15.292-34.155-34.155-34.155h-614.783zM819.396 294.682c18.863 0 34.155-15.292 34.155-34.155s-15.292-34.155-34.155-34.155h-614.783c-18.863 0-34.155 15.292-34.155 34.155s15.291 34.155 34.155 34.155h614.783zM772.945 548.45l68.309-56.695c7.834-6.49 12.365-16.128 12.365-26.3 0-10.167-4.531-19.81-12.365-26.3l-68.309-56.695c-6.097-5.214-13.833-8.115-21.858-8.196-10.159-0.017-19.797 4.489-26.3 12.297-5.807 6.967-8.602 15.962-7.77 24.998s5.227 17.365 12.211 23.159l36.885 30.737-36.885 30.741c-10.377 7.479-15.701 20.126-13.803 32.777 1.899 12.646 10.709 23.174 22.822 27.277s25.506 1.093 34.697-7.799z" />
<glyph unicode="&#xe921;" glyph-name="amazon" d="M171.7 278.537c-0.778-1.088-1.211-2.389-1.242-3.725 0.25-2.526 1.617-4.804 3.726-6.212 45.35-40.87 97.742-73.165 154.628-95.322 58.387-22.72 120.541-34.202 183.192-33.843 43.422 0.213 86.63 6.059 128.546 17.387 41.826 10.743 81.954 27.255 119.232 49.058 11.593 7.040 21.111 13.248 28.565 18.628 5.794 4.143 6.933 8.695 3.413 13.662-3.136 4.877-9.502 6.502-14.592 3.729-1.655-0.828-4.45-2.069-8.384-3.729-3.934-1.655-6.933-2.897-9.003-3.725-76.638-29.764-158.11-45.133-240.324-45.333-118.645-0.819-235.326 30.281-337.822 90.044-4.554 2.901-7.866 2.692-9.936-0.619zM358.619 455.518c-0.745 26.027 6.635 51.639 21.114 73.28 14.42 20.561 34.476 36.52 57.754 45.952 26.466 10.566 54.255 17.46 82.59 20.493 11.179 1.242 29.393 2.898 54.647 4.968v10.557c1.57 18.247-1.417 36.598-8.691 53.405-9.553 12.843-25.033 19.879-40.986 18.63h-4.971c-12.791-0.919-25.062-5.44-35.396-13.041-10.035-7.611-16.896-18.674-19.251-31.050-0.503-6.993-5.564-12.813-12.42-14.283l-71.413 8.694c-7.038 1.656-10.557 5.382-10.557 11.178 0.031 1.469 0.239 2.928 0.621 4.347 4.863 33.446 23.715 63.249 51.853 81.971 29.001 18.266 62.315 28.548 96.564 29.808h15.526c40.179 2.415 79.753-10.702 110.537-36.639 4.156-4.159 7.996-8.621 11.49-13.351 3.059-4.062 5.858-8.314 8.38-12.73 2.564-5.113 4.446-10.542 5.589-16.145 1.655-7.038 2.901-11.903 3.729-14.594 1.19-5.72 1.813-11.544 1.86-17.388 0.414-8.901 0.623-14.179 0.623-15.835v-150.28c-0.119-10.027 1.455-19.998 4.655-29.5 2.095-6.801 5.129-13.282 9.007-19.247 2.897-3.934 7.659-10.249 14.281-18.944 2.185-2.876 3.477-6.332 3.729-9.933-0.124-3.541-1.98-6.793-4.971-8.695-34.359-29.807-52.992-45.952-55.889-48.439-5.295-3.759-12.25-4.241-18.010-1.242-5.794 4.971-10.867 9.732-15.215 14.285-4.343 4.553-7.45 7.868-9.314 9.937-3.217 3.87-6.225 7.91-9.003 12.109-4.139 6.003-7.040 10.039-8.695 12.109-17.963-21.747-41.613-38.084-68.309-47.198-17.007-4.506-34.569-6.596-52.164-6.208-29.073-1.067-57.365 9.557-78.554 29.495-21.52 22.293-32.676 52.604-30.739 83.524zM465.429 467.938c-0.704-13.965 3.593-27.725 12.109-38.81 7.991-9.694 20.053-15.095 32.606-14.596 1.771 0.060 3.537 0.269 5.278 0.623 1.532 0.32 3.089 0.529 4.655 0.619 17.685 4.791 32.418 17.028 40.367 33.536 4.629 8.055 8.081 16.734 10.244 25.771 1.975 7.415 3.226 15.006 3.725 22.665 0.209 5.798 0.311 15.322 0.311 28.565v15.526c-18.347 0.567-36.698-1.101-54.647-4.966-32.96-5.956-56.367-35.477-54.647-68.932zM726.246 267.981c-0.333-0.572-0.546-1.207-0.619-1.865-0.41-0.87-0.149-1.907 0.619-2.483 1.451-1.011 3.217-1.451 4.971-1.242 8.691 1.242 18.214 2.483 28.565 3.725 9.523 0.828 17.801 1.242 24.841 1.242 19.042 0 30.635-2.483 34.773-7.454 1.899-2.944 2.773-6.438 2.483-9.933-3.422-26.15-11.187-51.546-22.976-75.14-1.242-3.311-0.619-5.589 1.865-6.831 0.768-0.401 1.617-0.614 2.483-0.623 2.086 0.179 4.058 1.054 5.589 2.483 14.699 12.898 26.001 29.214 32.913 47.509 7.095 16.188 11.098 33.566 11.797 51.23v4.348c0.26 3.887-0.602 7.765-2.483 11.179-3.725 4.553-14.903 7.659-33.532 9.314-3.878 0.836-7.859 1.045-11.802 0.619-15.526-0.503-30.946-2.795-45.952-6.831-10.679-3.025-20.757-7.859-29.807-14.281-1.502-1.446-2.761-3.123-3.729-4.966z" />
<glyph unicode="&#xe922;" glyph-name="ambulance" d="M465.429 543.078c17.148 0 31.053-13.901 31.053-31.049s-13.905-31.049-31.053-31.049h-31.049v-31.049c0-17.152-13.902-31.053-31.050-31.053s-31.050 13.901-31.050 31.053v31.049h-31.049c-17.149 0-31.050 13.901-31.050 31.049s13.901 31.049 31.050 31.049h31.049v31.051c0 17.148 13.902 31.050 31.050 31.050s31.050-13.902 31.050-31.050v-31.051h31.049zM851.379 476.322l-1.865 3.418c-0.533 1.536-1.263 2.995-2.172 4.348l-74.522 99.357c-17.591 23.456-45.197 37.26-74.517 37.26h-62.101v31.050c0 51.445-41.702 93.149-93.15 93.149h-279.445c-51.445 0-93.149-41.704-93.149-93.149v-341.546c0-17.148 13.901-31.049 31.049-31.049h31.050c0-51.447 41.705-93.15 93.149-93.15s93.149 41.702 93.149 93.15h186.298c0-51.447 41.702-93.15 93.15-93.15 51.443 0 93.15 41.702 93.15 93.15h31.049c17.148 0 31.049 13.901 31.049 31.049v155.247c-0.068 3.725-0.802 7.407-2.172 10.867zM325.707 248.107c-17.148 0-31.049 13.901-31.049 31.053 0 17.148 13.901 31.049 31.049 31.049s31.050-13.901 31.050-31.049c0-17.152-13.901-31.053-31.050-31.053zM574.106 341.257h-179.468c-17.654 19.422-42.683 30.498-68.931 30.498s-51.276-11.076-68.93-30.498h-24.219v310.497c0 17.148 13.902 31.050 31.050 31.050h279.445c17.152 0 31.053-13.902 31.053-31.050v-310.497zM636.203 558.605h62.101c9.771 0 18.974-4.602 24.841-12.42l37.257-49.681h-124.198v62.101zM698.304 248.107c-17.148 0-31.049 13.901-31.049 31.053 0 17.148 13.901 31.049 31.049 31.049s31.049-13.901 31.049-31.049c0-17.152-13.901-31.053-31.049-31.053zM791.454 341.257h-24.222c-34.389 37.871-92.885 40.922-131.029 6.831v86.319h155.251v-93.15z" />
<glyph unicode="&#xe923;" glyph-name="analysis" d="M844.113 602.398c-6.11 6.158-14.421 9.622-23.095 9.622s-16.99-3.464-23.095-9.622l-204.604-204.928-139.546 139.87c-6.106 6.161-14.421 9.626-23.095 9.626-8.672 0-16.986-3.465-23.094-9.626l-195.17-195.166c-6.158-6.11-9.622-14.421-9.622-23.095s3.464-16.99 9.622-23.095c6.108-6.157 14.422-9.621 23.095-9.621s16.987 3.465 23.095 9.621l172.074 172.399 139.546-139.87c6.11-6.161 14.421-9.626 23.095-9.626s16.99 3.465 23.095 9.626l227.699 227.696c6.157 6.108 9.621 14.422 9.621 23.095s-3.465 16.987-9.621 23.095z" />
<glyph unicode="&#xe924;" glyph-name="analytics" d="M255.842 465.455c18.863 0 34.155-15.292 34.155-34.155v-273.237c0-18.863-15.292-34.155-34.155-34.155s-34.155 15.292-34.155 34.155v273.237c0 18.863 15.292 34.155 34.155 34.155zM426.615 807.002c18.863 0 34.155-15.291 34.155-34.155v-614.784c0-18.863-15.292-34.155-34.155-34.155s-34.155 15.292-34.155 34.155v614.784c0 18.863 15.292 34.155 34.155 34.155zM768.162 328.836c18.863 0 34.155-15.292 34.155-34.155v-136.619c0-18.863-15.292-34.155-34.155-34.155s-34.155 15.292-34.155 34.155v136.619c0 18.863 15.292 34.155 34.155 34.155zM597.389 602.074c18.863 0 34.155-15.291 34.155-34.155v-409.856c0-18.863-15.292-34.155-34.155-34.155s-34.155 15.292-34.155 34.155v409.856c0 18.863 15.292 34.155 34.155 34.155z" />
<glyph unicode="&#xe925;" glyph-name="anchor" d="M739.695 416.661h-65.058c-17.963 0-32.529-14.562-32.529-32.525 0-17.967 14.566-32.529 32.529-32.529h29.602c-13.897-81.766-77.948-145.822-159.714-159.714v289.826h32.529c17.963 0 32.529 14.562 32.529 32.529 0 17.963-14.566 32.529-32.529 32.529h-32.529v38.382c44.809 15.843 71.689 61.663 63.65 108.506-8.034 46.843-48.653 81.083-96.179 81.083s-88.141-34.24-96.178-81.083c-8.037-46.843 18.841-92.663 63.649-108.506v-38.382h-32.525c-17.967 0-32.53-14.566-32.53-32.529 0-17.967 14.563-32.529 32.53-32.529h32.525v-289.826c-81.763 13.892-145.817 77.948-159.712 159.714h29.6c17.965 0 32.528 14.562 32.528 32.529 0 17.963-14.563 32.525-32.528 32.525h-65.056c-17.965 0-32.528-14.562-32.528-32.525 0-143.723 116.507-260.228 260.225-260.228s260.228 116.506 260.228 260.228c0 17.963-14.566 32.525-32.529 32.525zM511.996 644.361c-17.963 0-32.529 14.563-32.529 32.528s14.566 32.528 32.529 32.528c17.967 0 32.529-14.563 32.529-32.528s-14.562-32.528-32.529-32.528z" />
<glyph unicode="&#xe926;" glyph-name="android-alt" d="M235.237 563.025v0c8.628 0.002 16.903-3.424 23.003-9.525s9.527-14.377 9.525-23.004v-130.112c0-17.967-14.563-32.529-32.528-32.529s-32.528 14.562-32.528 32.529v130.112c-0.003 8.627 3.424 16.905 9.524 23.004 6.101 6.101 14.376 9.527 23.004 9.525zM820.745 563.025v0c8.627 0.002 16.905-3.424 23.006-9.525 6.097-6.1 9.527-14.377 9.523-23.004v-130.112c0-17.967-14.562-32.529-32.529-32.529-17.963 0-32.529 14.562-32.529 32.529v130.112c0 8.627 3.426 16.905 9.527 23.004 6.101 6.101 14.374 9.527 23.002 9.525zM686.263 741.931c5.854 10.063 5.879 22.487 0.073 32.576-5.811 10.089-16.567 16.302-28.211 16.292-11.639-0.010-22.387-6.242-28.181-16.34l-19.977-34.557c-51.93 24.391-112.021 24.391-163.951 0l-19.978 34.557c-5.792 10.098-16.54 16.33-28.181 16.34s-22.4-6.204-28.209-16.292c-5.809-10.088-5.782-22.512 0.070-32.576l22.526-38.967c-37.974-36.652-59.422-87.162-59.422-139.939v-260.224c0-8.631 3.424-16.905 9.525-23.006s14.376-9.527 23.003-9.523h65.055v-97.587c0-17.963 14.566-32.529 32.529-32.529 17.967 0 32.529 14.566 32.529 32.529v97.587h65.058v-97.587c0-17.963 14.562-32.529 32.525-32.529 17.967 0 32.529 14.566 32.529 32.529v97.587h65.058c8.627-0.004 16.9 3.422 23.002 9.523s9.527 14.374 9.527 23.006v260.224c0 52.777-21.449 103.287-59.422 139.939l22.524 38.967zM658.103 335.326h-260.226v162.641h260.226v-162.641zM397.878 563.025c0 71.86 58.255 130.113 130.114 130.113s130.112-58.253 130.112-130.113h-260.226z" />
<glyph unicode="&#xe927;" glyph-name="android-phone-slash" d="M472.644 295.983c-2.876 3.162-5.184 6.793-6.831 10.735-3.482 7.872-3.482 16.849 0 24.721 1.647 3.942 3.955 7.573 6.831 10.735 6.106 6.157 14.421 9.621 23.095 9.621s16.986-3.465 23.095-9.621c2.871-3.162 5.184-6.793 6.831-10.735 3.477-7.872 3.477-16.849 0-24.721-1.647-3.942-3.959-7.573-6.831-10.735-6.11-6.157-14.421-9.621-23.095-9.621s-16.99 3.465-23.095 9.621zM387.094 741.945c-17.965 0-32.528 14.563-32.528 32.528s14.563 32.528 32.528 32.528h238.758c53.897 0 97.583-43.69 97.583-97.585v-238.757c0-17.967-14.562-32.529-32.525-32.529-17.967 0-32.529 14.562-32.529 32.529v238.757c0 17.965-14.566 32.528-32.529 32.528h-238.758zM811.588 212.062l-585.509 585.507c-12.755 12.755-33.435 12.755-46.19 0s-12.755-33.435 0-46.19l88.152-87.826v-409.532c0-53.892 43.69-97.583 97.585-97.583h260.226c39.159 0.030 74.505 23.467 89.779 59.524l49.766-50.091c6.11-6.161 14.421-9.621 23.095-9.621s16.986 3.46 23.095 9.621c6.157 6.106 9.621 14.421 9.621 23.095 0 8.67-3.465 16.986-9.621 23.095zM658.381 254.020c0-17.963-14.566-32.529-32.529-32.529h-260.226c-17.965 0-32.528 14.566-32.528 32.529v344.475l325.283-325.284v-19.191z" />
<glyph unicode="&#xe928;" glyph-name="android" d="M604.386 744.318l29.803 53.766c1.609 2.901 0.559 6.556-2.342 8.164s-6.554 0.56-8.162-2.341l-30.135-54.361c-51.977 22.786-111.117 22.786-163.093 0l-30.134 54.361c-1.608 2.901-5.264 3.949-8.165 2.341s-3.949-5.263-2.341-8.164l29.803-53.766c-57.836-28.509-94.899-86.939-96.041-151.409h376.851c-1.143 64.471-38.208 122.901-96.043 151.409zM425.035 661.862c-8.691 0-15.736 7.045-15.736 15.736s7.045 15.736 15.736 15.736c8.693 0 15.737-7.045 15.737-15.736-0.013-8.687-7.049-15.726-15.737-15.736v0zM598.967 661.862c-8.691 0-15.735 7.045-15.735 15.736s7.044 15.736 15.735 15.736c8.691 0 15.735-7.045 15.735-15.736-0.009-8.687-7.049-15.726-15.735-15.736v0zM323.575 304.883v273.118h376.854v-273.118c0-12.079-4.796-23.667-13.342-32.209-8.542-8.546-20.13-13.346-32.209-13.346h-30.234v-93.175c0.043-15.121-8-29.107-21.086-36.681-13.086-7.569-29.222-7.569-42.308 0-13.086 7.573-21.129 21.559-21.090 36.681v93.175h-56.32v-93.175c0.043-15.121-8-29.107-21.086-36.681-13.086-7.569-29.222-7.569-42.308 0-13.086 7.573-21.129 21.559-21.088 36.681v93.175h-30.23c-25.159 0-45.554 20.399-45.554 45.555zM265.596 585.249c23.319-0.026 42.216-18.924 42.242-42.243v-176.004c0.041-15.117-8.001-29.107-21.088-36.676-13.086-7.573-29.222-7.573-42.308 0-13.087 7.569-21.129 21.559-21.088 36.676v176.004c0.026 23.319 18.923 42.217 42.242 42.243zM758.409 585.249v0c23.317-0.026 42.214-18.924 42.24-42.243v-176.004c0.043-15.117-8-29.107-21.086-36.676-13.086-7.573-29.222-7.573-42.308 0-13.086 7.569-21.129 21.559-21.090 36.676v176.004c0.030 23.319 18.923 42.217 42.244 42.243z" />
<glyph unicode="&#xe929;" glyph-name="angle-double-down" d="M471.573 496.192l-170.772 170.775c-22.95 22.321-23.46 59.021-1.138 81.971s59.021 23.46 81.971 1.138l130.357-133.203 130.355 133.203c14.848 14.439 36.271 19.862 56.196 14.224 19.93-5.638 35.337-21.478 40.418-41.555s-0.934-41.34-15.778-55.779l-170.773-170.775c-10.692-10.773-25.242-16.836-40.418-16.836s-29.726 6.063-40.418 16.836zM642.347 434.714v-2.274c22.323 22.319 58.513 22.319 80.836 0 22.319-22.323 22.319-58.513 0-80.832l-170.773-170.773c-10.692-10.778-25.242-16.841-40.418-16.841s-29.726 6.063-40.418 16.841l-170.772 170.773c-22.95 22.319-23.46 59.021-1.138 81.971s59.021 23.458 81.971 1.135l130.357-130.923 130.355 130.923z" />
<glyph unicode="&#xe92a;" glyph-name="angle-double-left" d="M481.259 648.184c10.773-10.688 16.836-25.238 16.836-40.416s-6.063-29.728-16.836-40.416l-130.928-130.356 130.928-130.359c10.773-10.688 16.836-25.237 16.836-40.414 0-15.181-6.063-29.73-16.836-40.418-10.692-10.778-25.242-16.836-40.418-16.836-15.178 0-29.728 6.059-40.416 16.836l-170.773 170.773c-10.777 10.688-16.838 25.237-16.838 40.418 0 15.177 6.062 29.726 16.838 40.414l170.773 170.774c10.688 10.777 25.238 16.838 40.416 16.838s29.726-6.062 40.418-16.838zM663.415 436.996l133.201-130.359c10.778-10.688 16.841-25.237 16.841-40.414 0-15.181-6.063-29.73-16.841-40.418-10.688-10.778-25.237-16.836-40.414-16.836-15.181 0-29.73 6.059-40.418 16.836l-170.773 170.773c-10.778 10.688-16.836 25.237-16.836 40.418 0 15.177 6.059 29.726 16.836 40.414l170.773 170.774c22.323 22.321 58.513 22.321 80.832 0 22.323-22.321 22.323-58.511 0-80.832l-133.201-130.356z" />
<glyph unicode="&#xe92b;" glyph-name="angle-double-right" d="M310.49 648.184l168.495-170.774c10.778-10.688 16.841-25.237 16.841-40.414 0-15.181-6.063-29.73-16.841-40.418l-170.772-170.773c-10.688-10.778-25.238-16.836-40.416-16.836s-29.728 6.059-40.416 16.836c-10.776 10.688-16.838 25.237-16.838 40.418 0 15.177 6.062 29.726 16.838 40.414l133.203 130.359-133.203 130.356c-22.321 22.95-21.812 59.65 1.139 81.971s59.65 21.812 81.971-1.139zM794.347 477.41h2.278c10.479-10.987 16.137-25.711 15.71-40.892-0.431-15.177-6.903-29.559-17.988-39.94l-170.773-170.773c-10.688-10.778-25.237-16.836-40.414-16.836-15.181 0-29.73 6.059-40.418 16.836-10.778 10.688-16.836 25.237-16.836 40.418 0 15.177 6.059 29.726 16.836 40.414l130.927 130.359-130.927 130.356c-22.323 22.321-22.323 58.511 0 80.832s58.513 22.321 80.832 0l170.773-170.774z" />
<glyph unicode="&#xe92c;" glyph-name="angle-double-up" d="M580.885 434.714l170.773-173.047c10.778-10.692 16.841-25.242 16.841-40.418s-6.063-29.726-16.841-40.418c-10.688-10.773-25.237-16.836-40.414-16.836-15.181 0-29.73 6.063-40.418 16.836l-130.355 133.205-130.358-133.205c-22.95-22.319-59.65-21.811-81.971 1.139s-21.812 59.652 1.138 81.971l170.772 170.773c10.688 10.778 25.237 16.841 40.418 16.841 15.177 0 29.726-6.063 40.414-16.841zM410.114 496.192c-22.321-22.319-58.511-22.319-80.833 0-22.321 22.323-22.321 58.512 0 80.834l170.772 170.773c10.688 10.777 25.237 16.838 40.418 16.838 15.177 0 29.726-6.061 40.414-16.838l170.773-170.773c10.778-10.688 16.841-25.238 16.841-40.416 0-15.181-6.063-29.73-16.841-40.418-10.688-10.778-25.237-16.836-40.414-16.836-15.181 0-29.73 6.059-40.418 16.836l-130.355 130.927-130.358-130.927z" />
<glyph unicode="&#xe92d;" glyph-name="angle-down" d="M796.634 626.553c-22.204 22.071-58.061 22.071-80.265 0l-204.361-201.512-201.511 201.512c-22.202 22.071-58.061 22.071-80.263 0-10.777-10.688-16.838-25.238-16.838-40.416s6.062-29.728 16.838-40.417l241.361-241.361c10.688-10.773 25.237-16.836 40.414-16.836 15.181 0 29.73 6.063 40.418 16.836l244.207 241.361c10.773 10.689 16.836 25.239 16.836 40.417s-6.063 29.728-16.836 40.416z" />
<glyph unicode="&#xe92e;" glyph-name="angle-left-b" d="M341.221 426.424l278.115-273.237c19.52-19.516 48.794-19.516 68.309 0 19.52 19.516 19.52 48.794 0 68.309l-239.083 243.964 239.083 243.96c19.52 19.517 19.52 48.792 0 68.309-9.758 9.758-19.516 14.638-34.155 14.638-14.635 0-24.397-4.879-34.155-14.638l-278.115-273.238c-19.517-24.397-19.517-53.67 0-78.067 0 4.881 0 4.881 0 0z" />
<glyph unicode="&#xe92f;" glyph-name="angle-left" d="M471.582 465.455l201.51 201.513c22.071 22.203 22.071 58.061 0 80.264-10.688 10.776-25.237 16.838-40.414 16.838-15.181 0-29.73-6.062-40.418-16.838l-241.36-241.359c-10.776-10.688-16.838-25.242-16.838-40.418s6.062-29.726 16.838-40.414l241.36-244.207c10.743-10.658 25.284-16.597 40.418-16.512 15.13-0.085 29.67 5.854 40.414 16.512 22.071 22.204 22.071 58.061 0 80.265l-201.51 204.356z" />
<glyph unicode="&#xe930;" glyph-name="angle-right-1" d="M673.101 505.873l-241.361 241.359c-10.688 10.776-25.238 16.838-40.416 16.838s-29.728-6.062-40.416-16.838c-22.071-22.203-22.071-58.061 0-80.264l201.511-201.513-201.511-201.51c-22.071-22.204-22.071-58.061 0-80.265 10.743-10.658 25.286-16.597 40.416-16.508 15.131-0.090 29.674 5.85 40.416 16.508l241.361 241.361c10.773 10.688 16.836 25.237 16.836 40.414s-6.063 29.73-16.836 40.418z" />
<glyph unicode="&#xe931;" glyph-name="angle-right-b-1" d="M684.723 500.096l-276.166 275.676c-9.161 9.237-21.632 14.433-34.642 14.433s-25.481-5.196-34.643-14.433c-18.918-19.031-18.918-49.766 0-68.797l241.524-243.961-241.524-241.523c-18.918-19.029-18.918-49.766 0-68.796 9.128-9.314 21.603-14.583 34.643-14.639 13.039 0.055 25.515 5.325 34.642 14.639l276.166 275.674c10.010 9.237 15.706 22.242 15.706 35.866 0 13.619-5.696 26.624-15.706 35.861z" />
<glyph unicode="&#xe932;" glyph-name="angle-right-b" d="M684.723 500.096l-276.166 275.676c-9.161 9.237-21.632 14.433-34.642 14.433s-25.481-5.196-34.643-14.433c-18.918-19.031-18.918-49.766 0-68.797l241.524-243.961-241.524-241.523c-18.918-19.029-18.918-49.766 0-68.796 9.128-9.314 21.603-14.583 34.643-14.639 13.039 0.055 25.515 5.325 34.642 14.639l276.166 275.674c10.010 9.237 15.706 22.242 15.706 35.866 0 13.619-5.696 26.624-15.706 35.861z" />
<glyph unicode="&#xe933;" glyph-name="angle-right" d="M673.101 505.873l-241.361 241.359c-10.688 10.776-25.238 16.838-40.416 16.838s-29.728-6.062-40.416-16.838c-22.071-22.203-22.071-58.061 0-80.264l201.511-201.513-201.511-201.51c-22.071-22.204-22.071-58.061 0-80.265 10.743-10.658 25.286-16.597 40.416-16.508 15.131-0.090 29.674 5.85 40.416 16.508l241.361 241.361c10.773 10.688 16.836 25.237 16.836 40.414s-6.063 29.73-16.836 40.418z" />
<glyph unicode="&#xe934;" glyph-name="angle-up" d="M796.634 385.19l-244.207 241.359c-10.688 10.777-25.237 16.838-40.418 16.838-15.177 0-29.726-6.062-40.414-16.838l-241.361-241.359c-10.777-10.688-16.838-25.237-16.838-40.418 0-15.177 6.062-29.726 16.838-40.414 22.202-22.071 58.061-22.071 80.263 0l201.511 201.51 201.515-201.51c10.603-10.517 24.913-16.448 39.846-16.508 15.13-0.090 29.675 5.85 40.418 16.508 11.162 10.304 17.741 24.64 18.274 39.821s-5.022 29.948-15.428 41.011z" />
<glyph unicode="&#xe935;" glyph-name="angry" d="M443.695 499.61c-5.359-0.064-10.645 1.229-15.369 3.759l-68.31 34.155c-11.819 4.919-19.892 16.038-20.916 28.8s5.177 25.024 16.061 31.765c10.884 6.741 24.624 6.83 35.594 0.229l68.308-34.155c16.747-8.524 23.462-28.977 15.031-45.766-5.79-11.486-17.536-18.748-30.4-18.786zM512.004 807.002c-188.63 0-341.546-152.916-341.546-341.547 0-188.629 152.916-341.547 341.546-341.547 188.634 0 341.547 152.917 341.547 341.547 0 90.584-35.985 177.458-100.036 241.51s-150.925 100.037-241.51 100.037zM512.004 192.218c-150.904 0-273.236 122.334-273.236 273.237 0 150.905 122.333 273.237 273.236 273.237s273.237-122.332 273.237-273.237c0-72.465-28.787-141.965-80.030-193.207s-120.738-80.030-193.207-80.030zM387.682 351.718c72.606 58.364 176.038 58.364 248.644 0 10.825-9.25 14.771-24.247 9.903-37.628-4.864-13.385-17.523-22.34-31.761-22.481-7.979-0.017-15.714 2.761-21.858 7.855-47.044 37.926-114.167 37.926-161.212 0-6.969-5.811-15.964-8.606-24.999-7.774-9.035 0.836-17.367 5.227-23.158 12.211-11.866 14.468-9.886 35.785 4.44 47.817zM633.254 598.317c16.516 6.877 35.537-0.154 43.61-16.119s2.458-35.454-12.873-44.675l-68.309-34.155c-4.723-2.53-10.010-3.823-15.369-3.759-12.86 0.038-24.61 7.3-30.396 18.786-8.435 16.789-1.719 37.242 15.027 45.766l68.309 34.155z" />
<glyph unicode="&#xe936;" glyph-name="ankh" d="M716.928 465.455h-105.54c45.039 45.517 70.63 106.747 71.386 170.773 0 94.316-76.459 170.773-170.773 170.773-94.316 0-170.774-76.458-170.774-170.773 0.754-64.026 26.348-125.257 71.383-170.773h-105.538c-18.863 0-34.155-15.292-34.155-34.155s15.292-34.155 34.155-34.155h170.774v-239.083c0-18.863 15.292-34.155 34.155-34.155s34.155 15.292 34.155 34.155v239.083h170.773c18.863 0 34.155 15.292 34.155 34.155s-15.292 34.155-34.155 34.155zM512 470.921c-31.765 21.175-102.465 77.188-102.465 165.308 0 56.59 45.876 102.464 102.465 102.464s102.464-45.874 102.464-102.464c0-88.119-70.703-144.474-102.464-165.308z" />
<glyph unicode="&#xe937;" glyph-name="annoyed-alt" d="M602.854 412.173c11.571 4.557 24.7 2.47 34.283-5.449 9.583-7.923 14.106-20.425 11.806-32.644-2.3-12.215-11.055-22.221-22.861-26.116l-143.45-51.234c-3.725-1.348-7.654-2.044-11.614-2.048-16.508 0.183-30.524 12.147-33.293 28.425s6.502 32.205 22.025 37.837l143.104 51.23zM466.236 582.947l-1.365 0.683c6.861-6.25 10.884-15.023 11.14-24.301 0.26-9.279-3.268-18.26-9.775-24.882-40.002-39.953-104.809-39.953-144.814 0-6.466 6.413-10.103 15.142-10.103 24.25s3.637 17.837 10.103 24.25c13.321 13.242 34.836 13.242 48.158 0 6.413-6.466 15.143-10.103 24.25-10.103s17.837 3.637 24.25 10.103c13.323 13.242 34.836 13.242 48.156 0zM705.318 582.947l-1.365 0.683c6.861-6.25 10.884-15.023 11.14-24.301 0.26-9.279-3.268-18.26-9.775-24.882-40.004-39.953-104.811-39.953-144.815 0-6.464 6.413-10.103 15.142-10.103 24.25s3.639 17.837 10.103 24.25c13.325 13.242 34.837 13.242 48.158 0 6.413-6.466 15.142-10.103 24.252-10.103 9.105 0 17.835 3.637 24.247 10.103 13.325 13.242 34.837 13.242 48.158 0zM512.004 807.002c-188.63 0-341.546-152.916-341.546-341.547 0-188.629 152.916-341.547 341.546-341.547 188.634 0 341.547 152.917 341.547 341.547 0 90.584-35.985 177.458-100.036 241.51s-150.925 100.037-241.51 100.037zM512.004 192.218c-150.904 0-273.236 122.334-273.236 273.237 0 150.905 122.333 273.237 273.236 273.237s273.237-122.332 273.237-273.237c0-72.465-28.787-141.965-80.030-193.207s-120.738-80.030-193.207-80.030z" />
<glyph unicode="&#xe938;" glyph-name="annoyed" d="M409.541 567.919c18.862 0 34.154-15.291 34.154-34.155s-15.292-34.155-34.154-34.155c-18.863 0-34.155 15.292-34.155 34.155s15.291 34.155 34.155 34.155zM614.468 431.3c18.863 0 34.155-15.292 34.155-34.155s-15.292-34.155-34.155-34.155c-37.474 0.171-72.055-20.13-90.167-52.941-6.037-10.739-17.391-17.395-29.713-17.417-5.871 0.017-11.631 1.545-16.738 4.437-16.26 9.382-21.905 30.127-12.638 46.451 30.131 54.182 87.262 87.782 149.257 87.778zM614.468 567.919c18.863 0 34.155-15.291 34.155-34.155s-15.292-34.155-34.155-34.155c-18.863 0-34.155 15.292-34.155 34.155s15.292 34.155 34.155 34.155zM512.004 807.002c-188.63 0-341.546-152.916-341.546-341.547 0-188.629 152.916-341.547 341.546-341.547 188.634 0 341.547 152.917 341.547 341.547 0 90.584-35.985 177.458-100.036 241.51s-150.925 100.037-241.51 100.037zM512.004 192.218c-150.904 0-273.236 122.334-273.236 273.237 0 150.905 122.333 273.237 273.236 273.237s273.237-122.332 273.237-273.237c0-72.465-28.787-141.965-80.030-193.207s-120.738-80.030-193.207-80.030z" />
<glyph unicode="&#xe939;" glyph-name="apple-alt" d="M776.068 349.214c-38.839 16.614-63.966 54.852-63.795 97.092 0.499 37.495 20.305 72.081 52.395 91.482 7.215 4.463 12.292 11.678 14.054 19.978 1.758 8.299 0.043 16.956-4.745 23.959-28.715 41.759-74.291 68.833-124.702 74.076 23.185 36.79 33.702 80.149 29.961 123.471-1.519 16.348-15.689 28.573-32.081 27.684-53.312-4.752-102.737-29.898-137.967-70.196-22.332-25.876-38.089-56.759-45.935-90.026-16.213 5.487-33.19 8.393-50.305 8.611-64.449-1.827-123.24-37.258-154.96-93.391-58.612-101.761-22.757-254.248 40.737-346.032 25.47-36.783 63.691-91.998 121.348-91.998 1.137 0 2.289 0 3.441 0.060 19.318 1.097 38.232 5.99 55.657 14.404 13.918 7.053 29.274 10.812 44.877 10.978 14.673-0.179 29.103-3.772 42.146-10.492 19.059-9.020 39.834-13.85 60.915-14.161 59.401 1.122 94.485 52.365 120.107 89.813 20.215 29.747 36.036 62.251 46.967 96.516 4.834 15.501-3.051 32.115-18.116 38.17v0zM556.203 696.22c16.311 18.242 36.745 32.318 59.601 41.056-5.001-24.599-16.064-47.56-32.188-66.799-10.944-13.13-24.26-24.085-39.253-32.294l-0.090-0.031c-0.879-0.364-1.758-0.697-2.641-1.061-5.79-2.274-12.945-5.094-18.466-6.913 5.329 24.426 16.687 47.13 33.037 66.043v0zM695.974 249.579c-24.956-36.45-44.587-62.315-69.999-62.767-12.284 0.038-24.363 3.153-35.127 9.067-20.817 10.142-43.648 15.467-66.799 15.586-23.962-0.119-47.595-5.559-69.197-15.919-10.5-5.363-21.961-8.597-33.717-9.523h-0.925c-25.243 0-52.396 39.206-70.423 65.254-45.104 65.195-86.705 195.093-37.978 279.689 20.783 37.237 59.55 60.868 102.17 62.281l1.046 0.031c17.675-1.502 34.938-6.176 50.955-13.797 4.079-1.607 8.098-3.214 12.083-4.7 1.015-0.425 2.065-0.819 3.123-1.152 11.051-4.444 22.788-6.938 34.688-7.369 16.853 1.339 33.314 5.769 48.563 13.069 21.495 10.432 45.124 15.716 69.013 15.434 25.553-1 50.086-10.304 69.875-26.502-34.197-31.511-53.504-75.999-53.154-122.502v-0.030c-0.354-56.589 28.39-109.397 76.109-139.814-8.175-19.755-18.33-38.63-30.306-56.337z" />
<glyph unicode="&#xe93a;" glyph-name="apple" d="M612.416 698.048v0c-24.111-30.901-61.222-48.826-100.416-48.5-3.345 38.349 8.973 76.42 34.155 105.538 26.027 30.071 62.822 48.716 102.464 51.915 2.901-39.687-10.125-78.896-36.203-108.953zM698.483 443.938c0.226-60.147 36.211-114.389 91.537-137.984-10.935-34.551-26.812-67.337-47.134-97.344-28.689-41.327-60.113-82.654-104.516-83.678-44.399-1.024-60.45 26.982-112.708 26.982s-66.944-26.3-112.027-28.006c-45.084-1.707-79.239 45.086-106.563 86.413-60.112 84.361-104.855 239.765-44.743 344.278 28.667 51.657 82.354 84.466 141.4 86.411 44.403 0.683 84.36-29.714 112.712-29.714 28.348 0 77.53 36.545 130.812 31.081 50.099-1.811 96.422-27.122 125.005-68.309-45.414-27.724-73.31-76.923-73.775-130.129z" />
<glyph unicode="&#xe93b;" glyph-name="apps" d="M443.695 431.3h-239.082c-18.863 0-34.155-15.292-34.155-34.155v-239.083c0-18.863 15.291-34.155 34.155-34.155h239.082c18.863 0 34.155 15.292 34.155 34.155v239.083c0 18.863-15.292 34.155-34.155 34.155zM409.541 192.218h-170.773v170.773h170.773v-170.773zM819.396 807.002h-239.083c-18.863 0-34.155-15.291-34.155-34.155v-239.083c0-18.863 15.292-34.155 34.155-34.155h239.083c18.863 0 34.155 15.292 34.155 34.155v239.083c0 18.863-15.292 34.155-34.155 34.155zM785.242 567.919h-170.773v170.773h170.773v-170.773zM819.396 431.3h-239.083c-18.863 0-34.155-15.292-34.155-34.155v-239.083c0-18.863 15.292-34.155 34.155-34.155h239.083c18.863 0 34.155 15.292 34.155 34.155v239.083c0 18.863-15.292 34.155-34.155 34.155zM785.242 192.218h-170.773v170.773h170.773v-170.773zM443.695 807.002h-239.082c-18.863 0-34.155-15.291-34.155-34.155v-239.083c0-18.863 15.291-34.155 34.155-34.155h239.082c18.863 0 34.155 15.292 34.155 34.155v239.083c0 18.863-15.292 34.155-34.155 34.155zM409.541 567.919h-170.773v170.773h170.773v-170.773z" />
<glyph unicode="&#xe93c;" glyph-name="archive-alt" d="M443.691 431.3c-18.863 0-34.154 15.292-34.154 34.155s15.291 34.155 34.154 34.155h136.619c18.863 0 34.155-15.292 34.155-34.155s-15.292-34.155-34.155-34.155h-136.619zM751.083 772.847h-478.164c-49.593-0.385-91.791-36.232-100.189-85.11s19.415-96.754 66.035-113.67v-313.54c0-56.589 45.874-102.464 102.464-102.464h341.546c56.589 0 102.464 45.875 102.464 102.464v313.54c46.622 16.916 74.432 64.792 66.035 113.67s-50.598 84.725-100.19 85.11zM716.928 260.527c0-18.863-15.292-34.155-34.155-34.155h-341.546c-18.863 0-34.155 15.292-34.155 34.155v307.392h409.855v-307.392zM751.083 636.228h-478.164c-18.863 0-34.155 15.291-34.155 34.155s15.291 34.155 34.155 34.155h478.164c18.863 0 34.155-15.292 34.155-34.155s-15.292-34.155-34.155-34.155z" />
<glyph unicode="&#xe93d;" glyph-name="archive" d="M443.695 397.146c-18.863 0-34.154 15.292-34.154 34.155s15.291 34.155 34.154 34.155h136.619c18.863 0 34.155-15.292 34.155-34.155s-15.292-34.155-34.155-34.155h-136.619zM751.087 772.847h-478.164c-56.589 0-102.464-45.875-102.464-102.464v-102.464c0-18.863 15.291-34.155 34.155-34.155h34.155v-273.237c0-56.589 45.875-102.464 102.464-102.464h341.546c56.589 0 102.464 45.875 102.464 102.464v273.237h34.155c18.863 0 34.155 15.292 34.155 34.155v102.464c0 56.589-45.875 102.464-102.464 102.464zM716.932 260.527c0-18.863-15.292-34.155-34.155-34.155h-341.546c-18.863 0-34.155 15.292-34.155 34.155v273.237h409.855v-273.237zM785.242 602.074h-546.474v68.309c0 18.863 15.291 34.155 34.155 34.155h478.164c18.863 0 34.155-15.292 34.155-34.155v-68.309z" />
<glyph unicode="&#xe93e;" glyph-name="archway" d="M822.502 217.058h-31.049v372.596h31.049c17.148 0 31.049 13.902 31.049 31.050s-13.901 31.050-31.049 31.050h-31.049v93.149c0 17.148-13.905 31.050-31.053 31.050h-496.794c-17.148 0-31.050-13.902-31.050-31.050v-93.149h-31.050c-17.148 0-31.049-13.902-31.049-31.050s13.901-31.050 31.049-31.050h31.050v-372.596h-31.050c-17.148 0-31.049-13.901-31.049-31.049 0-17.152 13.901-31.053 31.049-31.053h620.995c17.148 0 31.049 13.901 31.049 31.053 0 17.148-13.901 31.049-31.049 31.049zM605.154 217.058h-186.299v109.606c-0.152 67.691 35.203 130.505 93.149 165.491 57.946-34.987 93.303-97.801 93.15-165.491v-109.606zM729.353 217.058h-62.097v109.606c0.422 96.905-54.4 185.587-141.278 228.524-8.789 4.429-19.157 4.429-27.947 0-86.875-42.937-141.698-131.619-141.274-228.524v-109.606h-62.099v372.596h434.695v-372.596zM729.353 651.753h-434.695v62.099h434.695v-62.099z" />
<glyph unicode="&#xe93f;" glyph-name="arrow-break" d="M341.217 499.61c-18.863 0-34.155 15.292-34.155 34.155 0 18.862 15.291 34.153 34.155 34.153h136.62v122.615l-26.982-27.324c-13.393-13.393-35.107-13.393-48.5 0s-13.393 35.107 0 48.5l85.386 85.387c3.251 3.11 7.078 5.547 11.273 7.173 8.316 3.416 17.643 3.416 25.958 0 4.19-1.626 8.021-4.063 11.268-7.173l85.389-85.387c6.464-6.413 10.103-15.143 10.103-24.25s-3.639-17.837-10.103-24.25c-6.413-6.466-15.142-10.103-24.252-10.103-9.105 0-17.835 3.637-24.247 10.103l-26.982 27.324v-122.615h136.619c18.863 0 34.155-15.292 34.155-34.153 0-18.863-15.292-34.155-34.155-34.155h-341.548zM682.765 431.3c18.863 0 34.155-15.292 34.155-34.155s-15.292-34.155-34.155-34.155h-136.619v-122.615l26.982 27.324c8.661 8.661 21.291 12.045 33.126 8.875 11.831-3.17 21.077-12.416 24.247-24.247 3.17-11.836-0.213-24.465-8.875-33.126l-85.389-85.389c-3.247-3.11-7.078-5.547-11.268-7.172-8.269-3.652-17.694-3.652-25.958 0-4.194 1.626-8.021 4.062-11.273 7.172l-85.386 85.389c-8.663 8.661-12.047 21.291-8.876 33.126 3.171 11.831 12.415 21.077 24.25 24.247 11.836 3.17 24.461-0.213 33.127-8.875l26.982-27.324v122.615h-136.62c-18.863 0-34.155 15.292-34.155 34.155s15.291 34.155 34.155 34.155h341.548z" />
<glyph unicode="&#xe940;" glyph-name="arrow-circle-down" d="M487.757 338.739l-102.466 102.468c-6.466 6.413-10.103 15.142-10.103 24.247s3.637 17.839 10.103 24.252c6.413 6.464 15.143 10.099 24.25 10.099s17.838-3.635 24.251-10.099l44.058-44.403v122.615c0 18.863 15.292 34.155 34.155 34.155s34.155-15.291 34.155-34.155v-122.615l44.062 44.403c13.393 13.393 35.106 13.393 48.499 0s13.393-35.11 0-48.499l-102.464-102.468c-3.251-3.106-7.078-5.547-11.273-7.172-8.316-3.413-17.643-3.413-25.958 0-4.19 1.626-8.021 4.066-11.268 7.172zM512.004 123.908c188.634 0 341.547 152.917 341.547 341.547s-152.913 341.547-341.547 341.547c-188.63 0-341.546-152.916-341.546-341.547 0-90.586 35.984-177.459 100.037-241.51s150.926-100.036 241.509-100.036zM512.004 738.692c150.903 0 273.237-122.332 273.237-273.237 0-150.903-122.334-273.237-273.237-273.237s-273.236 122.334-273.236 273.237c0 150.905 122.333 273.237 273.236 273.237z" />
<glyph unicode="&#xe941;" glyph-name="arrow-circle-left" d="M385.291 489.707l102.466 102.462c6.413 6.466 15.142 10.103 24.247 10.103 9.109 0 17.839-3.637 24.252-10.103 6.464-6.413 10.103-15.143 10.103-24.25s-3.639-17.835-10.103-24.252l-44.403-44.058h122.615c18.863 0 34.155-15.292 34.155-34.155s-15.292-34.155-34.155-34.155h-122.615l44.403-44.058c13.393-13.393 13.393-35.11 0-48.503-13.393-13.389-35.106-13.389-48.499 0l-102.466 102.468c-3.11 3.247-5.547 7.078-7.172 11.268-3.416 8.316-3.416 17.643 0 25.958 1.626 4.194 4.063 8.021 7.172 11.273zM170.458 465.455c0-188.629 152.916-341.547 341.546-341.547 188.634 0 341.547 152.917 341.547 341.547s-152.913 341.547-341.547 341.547c-188.63 0-341.546-152.916-341.546-341.547zM785.242 465.455c0-150.903-122.334-273.237-273.237-273.237s-273.236 122.334-273.236 273.237c0 150.905 122.333 273.237 273.236 273.237 72.469 0 141.965-28.787 193.207-80.029s80.030-120.739 80.030-193.208z" />
<glyph unicode="&#xe942;" glyph-name="arrow-circle-right" d="M638.72 441.208l-102.464-102.468c-6.413-6.464-15.142-10.099-24.252-10.099-9.105 0-17.835 3.635-24.247 10.099-6.468 6.417-10.103 15.147-10.103 24.252s3.635 17.839 10.103 24.252l44.399 44.058h-122.615c-18.863 0-34.155 15.292-34.155 34.155s15.291 34.155 34.155 34.155h122.615l-44.399 44.058c-13.393 13.395-13.393 35.109 0 48.502s35.106 13.393 48.499 0l102.464-102.462c3.11-3.251 5.547-7.078 7.172-11.273 3.413-8.316 3.413-17.643 0-25.958-1.626-4.19-4.062-8.021-7.172-11.268zM853.551 465.455c0 188.631-152.913 341.547-341.547 341.547-188.63 0-341.546-152.916-341.546-341.547 0-188.629 152.916-341.547 341.546-341.547 188.634 0 341.547 152.917 341.547 341.547zM238.768 465.455c0 150.905 122.333 273.237 273.236 273.237s273.237-122.332 273.237-273.237c0-150.903-122.334-273.237-273.237-273.237-72.465 0-141.965 28.787-193.207 80.030s-80.029 120.742-80.029 193.207z" />
<glyph unicode="&#xe943;" glyph-name="arrow-circle-up" d="M536.256 592.169l102.464-102.462c6.464-6.413 10.103-15.147 10.103-24.252s-3.639-17.835-10.103-24.247c-6.413-6.468-15.142-10.103-24.252-10.103-9.105 0-17.835 3.635-24.247 10.103l-44.062 44.399v-122.615c0-18.863-15.292-34.155-34.155-34.155s-34.155 15.292-34.155 34.155v122.615l-44.058-44.399c-13.394-13.393-35.108-13.393-48.501 0-13.393 13.389-13.393 35.106 0 48.499l102.466 102.462c3.247 3.11 7.078 5.547 11.268 7.173 8.316 3.416 17.643 3.416 25.958 0 4.194-1.626 8.021-4.063 11.273-7.173zM512.004 807.002c-188.63 0-341.546-152.916-341.546-341.547 0-188.629 152.916-341.547 341.546-341.547 188.634 0 341.547 152.917 341.547 341.547 0 90.584-35.985 177.458-100.036 241.51s-150.925 100.037-241.51 100.037zM512.004 192.218c-150.904 0-273.236 122.334-273.236 273.237 0 150.905 122.333 273.237 273.236 273.237s273.237-122.332 273.237-273.237c0-72.465-28.787-141.965-80.030-193.207s-120.738-80.030-193.207-80.030z" />
<glyph unicode="&#xe944;" glyph-name="arrow-compress-h" d="M512.004 704.539c18.863 0 34.155-15.292 34.155-34.155v-409.857c0-18.863-15.292-34.155-34.155-34.155s-34.155 15.292-34.155 34.155v409.857c0 18.863 15.292 34.155 34.155 34.155zM467.947 489.707c3.106-3.251 5.547-7.078 7.172-11.273 3.652-8.265 3.652-17.69 0-25.958-1.626-4.19-4.066-8.021-7.172-11.268l-85.388-85.389c-6.413-6.464-15.143-10.103-24.25-10.103s-17.837 3.639-24.25 10.103c-6.466 6.413-10.103 15.142-10.103 24.252 0 9.105 3.637 17.835 10.103 24.247l27.324 26.982h-156.77c-18.863 0-34.155 15.292-34.155 34.155s15.291 34.155 34.155 34.155h156.77l-27.324 26.982c-8.663 8.666-12.047 21.291-8.876 33.126 3.171 11.834 12.415 21.079 24.25 24.25s24.463-0.212 33.126-8.876l85.388-85.385zM819.396 499.61c18.863 0 34.155-15.292 34.155-34.155s-15.292-34.155-34.155-34.155h-156.77l27.324-26.982c6.468-6.413 10.103-15.142 10.103-24.247 0-9.109-3.635-17.839-10.103-24.252-6.413-6.464-15.142-10.103-24.247-10.103-9.109 0-17.839 3.639-24.252 10.103l-85.385 85.389c-6.468 6.413-10.103 15.142-10.103 24.247 0 9.109 3.635 17.839 10.103 24.252l85.385 85.385c8.666 8.663 21.291 12.047 33.126 8.876s21.077-12.415 24.252-24.25c3.17-11.836-0.213-24.461-8.879-33.126l-27.324-26.982h156.77z" />
<glyph unicode="&#xe945;" glyph-name="arrow-down-left" d="M668.629 237.76h-304.058l344.472 343.902c22.323 22.321 22.323 58.511 0 80.833-22.319 22.321-58.513 22.321-80.832 0l-343.904-344.475v304.058c0 31.439-25.486 56.925-56.925 56.925s-56.924-25.486-56.924-56.925v-441.245c0.090-7.437 1.637-14.788 4.554-21.632 5.776-13.909 16.83-24.96 30.739-30.737 6.844-2.918 14.193-4.467 21.631-4.557h441.247c31.437 0 56.922 25.489 56.922 56.926s-25.485 56.926-56.922 56.926z" />
<glyph unicode="&#xe946;" glyph-name="arrow-down-right" d="M796.629 679.003c-31.437 0-56.922-25.486-56.922-56.925v-304.058l-343.905 344.475c-22.321 22.321-58.511 22.321-80.833 0s-22.321-58.511 0-80.833l344.473-343.902h-304.057c-31.439 0-56.925-25.489-56.925-56.926s25.486-56.926 56.925-56.926h441.243c7.441 0.090 14.788 1.638 21.632 4.557 13.909 5.777 24.964 16.828 30.741 30.737 2.914 6.844 4.463 14.195 4.553 21.632v441.245c0 31.439-25.485 56.925-56.926 56.925z" />
<glyph unicode="&#xe947;" glyph-name="arrow-down" d="M785.754 502.763c-9.865 9.95-23.296 15.543-37.308 15.543s-27.439-5.594-37.308-15.543l-172.873-173.397v398.82c0 29.020-23.526 52.546-52.548 52.546-29.018 0-52.544-23.526-52.544-52.546v-398.82l-172.876 173.397c-20.605 20.608-54.011 20.608-74.615 0-20.604-20.604-20.604-54.007 0-74.611l262.727-262.729c4.996-4.787 10.893-8.533 17.34-11.038 12.719-5.619 27.217-5.619 39.936 0 6.451 2.505 12.343 6.251 17.34 11.038l262.729 262.729c9.946 9.865 15.543 23.296 15.543 37.308 0 14.007-5.598 27.439-15.543 37.303z" />
<glyph unicode="&#xe948;" glyph-name="arrow-from-right" d="M204.613 738.694c18.863 0 34.155-15.291 34.155-34.155v-478.163c0-18.867-15.292-34.155-34.155-34.155s-34.155 15.287-34.155 34.155v478.163c0 18.863 15.291 34.155 34.155 34.155zM850.82 478.434c3.413-8.311 3.413-17.638 0-25.954-1.626-4.194-4.066-8.026-7.172-11.273l-136.619-136.619c-6.413-6.464-15.142-10.103-24.252-10.103-9.105 0-17.835 3.639-24.247 10.103-6.468 6.413-10.103 15.142-10.103 24.252 0 9.105 3.635 17.835 10.103 24.247l78.554 78.217h-395.852c-18.863 0-34.155 15.287-34.155 34.155 0 18.863 15.291 34.155 34.155 34.155h395.852l-78.554 78.212c-13.393 13.393-13.393 35.107 0 48.5s35.106 13.393 48.499 0l136.619-136.619c3.106-3.247 5.547-7.078 7.172-11.273z" />
<glyph unicode="&#xe949;" glyph-name="arrow-from-top" d="M624.375 318.933c13.393 13.393 35.11 13.393 48.499 0 13.393-13.393 13.393-35.11 0-48.499l-136.619-136.623c-3.247-3.106-7.078-5.547-11.268-7.172-8.269-3.652-17.69-3.652-25.958 0-4.194 1.626-8.021 4.066-11.273 7.172l-136.617 136.623c-13.393 13.389-13.393 35.106 0 48.499s35.107 13.393 48.5 0l78.214-78.558v395.853c0 18.863 15.292 34.155 34.155 34.155s34.155-15.291 34.155-34.155v-395.853l78.212 78.558zM751.091 807.002c18.863 0 34.155-15.291 34.155-34.155s-15.292-34.155-34.155-34.155h-478.166c-18.863 0-34.155 15.292-34.155 34.155s15.292 34.155 34.155 34.155h478.166z" />
<glyph unicode="&#xe94a;" glyph-name="arrow-growth" d="M850.944 656.72c-3.302 7.948-9.617 14.264-17.566 17.565-3.913 1.667-8.111 2.551-12.361 2.602h-162.641c-17.967 0-32.529-14.563-32.529-32.528s14.562-32.528 32.529-32.528h84.25l-181.837-181.832-107.017 107.341c-6.106 6.161-14.421 9.621-23.095 9.621-8.672 0-16.986-3.46-23.094-9.621l-195.17-195.17c-6.158-6.106-9.622-14.421-9.622-23.091 0-8.674 3.464-16.99 9.622-23.095 6.108-6.161 14.422-9.621 23.095-9.621s16.987 3.46 23.095 9.621l172.074 172.399 107.021-107.345c6.106-6.157 14.421-9.621 23.091-9.621 8.674 0 16.99 3.465 23.095 9.621l204.604 204.929v-84.247c0-17.967 14.562-32.529 32.529-32.529 17.963 0 32.529 14.562 32.529 32.529v162.639c-0.051 4.251-0.939 8.45-2.603 12.361z" />
<glyph unicode="&#xe94b;" glyph-name="arrow-left" d="M774.72 544.273h-398.822l173.402 172.874c20.604 20.604 20.604 54.010 0 74.615s-54.012 20.605-74.615 0l-262.729-262.729c-4.784-4.996-8.533-10.889-11.034-17.34-5.255-12.791-5.255-27.14 0-39.932 2.501-6.451 6.251-12.343 11.034-17.344l262.729-262.724c9.865-9.95 23.296-15.543 37.308-15.543s27.439 5.594 37.308 15.543c9.946 9.865 15.543 23.296 15.543 37.303 0 14.012-5.598 27.443-15.543 37.308l-173.402 172.877h398.822c29.018 0 52.544 23.526 52.544 52.544 0 29.022-23.526 52.548-52.544 52.548z" />
<glyph unicode="&#xe94c;" glyph-name="arrow-random" d="M420.919 546.778l-204.277 204.603c-12.755 12.755-12.755 33.435 0 46.19s33.435 12.755 46.19 0l203.954-204.928c12.612-12.687 12.612-33.178 0-45.865-12.689-12.612-33.178-12.612-45.867 0zM821.018 416.666c17.963 0 32.529-14.562 32.529-32.529v-195.17c-0.051-4.25-0.939-8.448-2.603-12.361-3.302-7.949-9.617-14.263-17.566-17.566-3.913-1.664-8.111-2.551-12.361-2.603h-195.17c-17.963 0-32.529 14.566-32.529 32.529 0 17.967 14.566 32.529 32.529 32.529h116.774l-149.303 148.331c-12.932 12.932-12.932 33.903 0 46.839 12.937 12.932 33.907 12.932 46.839 0l148.331-149.303v116.774c0 17.967 14.562 32.529 32.529 32.529zM850.944 786.837c1.664-3.91 2.551-8.11 2.603-12.361v-195.17c0-17.965-14.566-32.529-32.529-32.529-17.967 0-32.529 14.564-32.529 32.529v116.777l-529.885-530.212c-6.108-6.157-14.422-9.621-23.095-9.621s-16.987 3.465-23.095 9.621c-6.158 6.11-9.622 14.421-9.622 23.095s3.464 16.99 9.622 23.095l530.213 529.886h-116.779c-17.963 0-32.529 14.563-32.529 32.528s14.566 32.528 32.529 32.528h195.17c4.25-0.052 8.448-0.936 12.361-2.602 7.949-3.301 14.263-9.617 17.566-17.565z" />
<glyph unicode="&#xe94d;" glyph-name="arrow-resize-diagonal" d="M850.82 785.826c-3.469 8.346-10.099 14.978-18.445 18.444-4.105 1.75-8.516 2.679-12.979 2.732h-204.928c-18.863 0-34.155-15.291-34.155-34.155s15.292-34.155 34.155-34.155h122.615l-498.316-498.317v122.615c0 18.863-15.292 34.155-34.155 34.155s-34.155-15.292-34.155-34.155v-204.928c0.054-4.463 0.982-8.87 2.732-12.979 3.466-8.346 10.098-14.976 18.444-18.445 4.106-1.749 8.515-2.675 12.979-2.731h204.928c18.862 0 34.154 15.292 34.154 34.155s-15.292 34.155-34.154 34.155h-122.615l498.316 498.317v-122.615c0-18.863 15.292-34.155 34.155-34.155s34.155 15.292 34.155 34.155v204.928c-0.051 4.463-0.981 8.873-2.731 12.979z" />
<glyph unicode="&#xe94e;" glyph-name="arrow-right" d="M823.074 511.693c-2.5 6.451-6.251 12.343-11.034 17.34l-262.729 262.729c-13.329 13.329-32.755 18.534-50.965 13.655-18.206-4.879-32.427-19.1-37.308-37.308-4.877-18.207 0.329-37.634 13.658-50.963l173.402-172.873h-398.823c-29.020 0-52.546-23.526-52.546-52.548 0-29.018 23.526-52.544 52.546-52.544h398.823l-173.402-172.877c-9.95-9.865-15.543-23.296-15.543-37.308s5.594-27.439 15.543-37.308c9.865-9.946 23.296-15.543 37.308-15.543 14.007 0 27.439 5.598 37.308 15.543l262.729 262.729c4.783 4.996 8.533 10.893 11.034 17.34 5.257 12.796 5.257 27.145 0 39.936z" />
<glyph unicode="&#xe94f;" glyph-name="arrow-to-bottom" d="M751.091 192.218c18.863 0 34.155-15.292 34.155-34.155s-15.292-34.155-34.155-34.155h-478.166c-18.863 0-34.155 15.292-34.155 34.155s15.292 34.155 34.155 34.155h478.166zM487.757 270.43l-136.617 136.623c-8.664 8.661-12.047 21.291-8.876 33.122 3.171 11.836 12.415 21.082 24.25 24.252s24.462-0.213 33.126-8.875l78.214-78.558v395.853c0 18.863 15.292 34.155 34.155 34.155s34.155-15.291 34.155-34.155v-395.853l78.212 78.558c13.393 13.393 35.11 13.393 48.499 0 13.393-13.393 13.393-35.11 0-48.499l-136.619-136.623c-3.247-3.106-7.078-5.547-11.268-7.172-8.269-3.652-17.69-3.652-25.958 0-4.194 1.626-8.021 4.066-11.273 7.172z" />
<glyph unicode="&#xe950;" glyph-name="arrow-to-right" d="M707.029 489.707c3.11-3.247 5.547-7.078 7.172-11.273 3.413-8.311 3.413-17.638 0-25.954-1.626-4.194-4.062-8.026-7.172-11.273l-136.619-136.619c-6.413-6.464-15.142-10.103-24.252-10.103-9.105 0-17.835 3.639-24.247 10.103-6.468 6.413-10.103 15.142-10.103 24.252 0 9.105 3.635 17.835 10.103 24.247l78.554 78.217h-395.852c-18.863 0-34.155 15.287-34.155 34.155 0 18.863 15.291 34.155 34.155 34.155h395.852l-78.554 78.212c-8.666 8.663-12.049 21.291-8.879 33.126 3.174 11.834 12.416 21.079 24.252 24.25s24.461-0.212 33.126-8.876l136.619-136.619zM819.396 738.694c18.863 0 34.155-15.291 34.155-34.155v-478.163c0-18.867-15.292-34.155-34.155-34.155s-34.155 15.287-34.155 34.155v478.163c0 18.863 15.292 34.155 34.155 34.155z" />
<glyph unicode="&#xe951;" glyph-name="arrow-up-left" d="M349.639 701.911h270.82c29.022 0 52.548 23.526 52.548 52.546s-23.526 52.545-52.548 52.545h-397.455c-6.867-0.083-13.65-1.511-19.968-4.204-12.839-5.332-23.043-15.535-28.375-28.375-2.692-6.317-4.121-13.101-4.204-19.967v-397.456c0-29.022 23.526-52.548 52.546-52.548s52.545 23.526 52.545 52.548v270.821l307.601-308.128c9.869-9.95 23.3-15.543 37.308-15.543 14.012 0 27.443 5.594 37.308 15.543 9.95 9.865 15.543 23.296 15.543 37.308s-5.594 27.439-15.543 37.308l-308.128 307.602z" />
<glyph unicode="&#xe952;" glyph-name="arrow-up-right" d="M849.335 774.424c-5.333 12.84-15.535 23.043-28.373 28.375-6.319 2.693-13.103 4.121-19.968 4.204h-397.456c-29.020 0-52.546-23.525-52.546-52.545s23.526-52.546 52.546-52.546h270.822l-308.129-307.602c-9.948-9.869-15.543-23.296-15.543-37.308s5.595-27.443 15.543-37.308c9.866-9.95 23.296-15.543 37.307-15.543s27.442 5.594 37.307 15.543l307.605 308.128v-270.821c0-29.022 23.522-52.548 52.544-52.548s52.544 23.526 52.544 52.548v397.456c-0.081 6.866-1.51 13.65-4.203 19.967z" />
<glyph unicode="&#xe953;" glyph-name="arrow-up" d="M785.754 502.763l-262.729 262.726c-4.996 4.784-10.889 8.534-17.34 11.034-12.791 5.256-27.14 5.256-39.932 0-6.451-2.501-12.343-6.251-17.34-11.034l-262.73-262.726c-13.329-13.329-18.534-32.755-13.655-50.965 4.879-18.206 19.1-32.427 37.307-37.308 18.207-4.877 37.634 0.329 50.963 13.658l172.875 173.399v-398.82c0-29.022 23.526-52.548 52.544-52.548 29.022 0 52.548 23.526 52.548 52.548v398.82l172.873-173.399c9.869-9.95 23.3-15.543 37.308-15.543 14.012 0 27.443 5.594 37.308 15.543 9.95 9.865 15.543 23.296 15.543 37.308 0 14.007-5.594 27.439-15.543 37.308z" />
<glyph unicode="&#xe954;" glyph-name="arrow" d="M447.637 652.768c6.805-6.751 10.633-15.94 10.633-25.526s-3.827-18.775-10.633-25.526l-154.596-154.237 154.596-154.236c6.805-6.75 10.633-15.94 10.633-25.523 0-9.587-3.827-18.778-10.633-25.527-6.754-6.805-15.94-10.633-25.528-10.633-9.586 0-18.775 3.827-25.526 10.633l-179.761 179.763c-6.806 6.75-10.635 15.94-10.635 25.523 0 9.587 3.828 18.778 10.635 25.527l179.761 179.761c6.75 6.806 15.94 10.634 25.526 10.634 9.588 0 18.774-3.828 25.528-10.634zM843.11 473.007c6.805-6.75 10.637-15.94 10.637-25.527 0-9.583-3.831-18.773-10.637-25.523l-179.759-179.763c-6.754-6.805-15.94-10.633-25.527-10.633s-18.778 3.827-25.527 10.633c-6.805 6.75-10.633 15.94-10.633 25.527 0 9.583 3.827 18.773 10.633 25.523l154.594 154.236-154.594 154.237c-9.118 9.12-12.681 22.412-9.344 34.869 3.341 12.457 13.069 22.188 25.527 25.526s25.749-0.224 34.871-9.343l179.759-179.761z" />
<glyph unicode="&#xe955;" glyph-name="arrows-h-alt" d="M850.816 478.434c3.418-8.316 3.418-17.643 0-25.958-1.626-4.19-4.062-8.021-7.172-11.268l-85.389-85.389c-6.413-6.464-15.142-10.103-24.247-10.103-9.109 0-17.839 3.639-24.252 10.103-6.464 6.413-10.103 15.142-10.103 24.252 0 9.105 3.639 17.835 10.103 24.247l27.324 26.982h-156.77c-18.863 0-34.155 15.292-34.155 34.155s15.292 34.155 34.155 34.155h156.77l-27.324 26.982c-8.661 8.666-12.045 21.291-8.875 33.126s12.416 21.079 24.247 24.25c11.836 3.171 24.465-0.212 33.126-8.876l85.389-85.385c3.11-3.251 5.547-7.078 7.172-11.273zM443.691 499.61c18.863 0 34.155-15.292 34.155-34.155s-15.292-34.155-34.155-34.155h-156.768l27.324-26.982c6.466-6.413 10.103-15.142 10.103-24.247 0-9.109-3.637-17.839-10.103-24.252-6.413-6.464-15.143-10.103-24.25-10.103s-17.837 3.639-24.25 10.103l-85.387 85.389c-3.11 3.247-5.547 7.078-7.173 11.268-3.416 8.316-3.416 17.643 0 25.958 1.626 4.194 4.063 8.021 7.173 11.273l85.387 85.385c13.393 13.393 35.107 13.393 48.5 0s13.393-35.107 0-48.5l-27.324-26.982h156.768z" />
<glyph unicode="&#xe956;" glyph-name="arrows-h" d="M850.816 495.509c-1.626 4.194-4.062 8.021-7.172 11.273l-136.619 136.617c-13.393 13.393-35.106 13.393-48.499 0s-13.393-35.107 0-48.5l78.554-78.215h-450.157l78.556 78.215c8.663 8.663 12.047 21.291 8.876 33.126s-12.415 21.079-24.25 24.25c-11.834 3.171-24.462-0.212-33.126-8.876l-136.619-136.617c-3.11-3.251-5.547-7.078-7.173-11.273-3.416-8.316-3.416-17.643 0-25.958 1.626-4.19 4.063-8.021 7.173-11.268l136.619-136.619c6.413-6.468 15.143-10.103 24.25-10.103s17.837 3.635 24.25 10.103c6.466 6.413 10.103 15.142 10.103 24.247 0 9.109-3.637 17.839-10.103 24.252l-78.556 78.212h450.157l-78.554-78.212c-6.468-6.413-10.103-15.142-10.103-24.252 0-9.105 3.635-17.835 10.103-24.247 6.413-6.468 15.142-10.103 24.247-10.103 9.109 0 17.839 3.635 24.252 10.103l136.619 136.619c3.11 3.247 5.547 7.078 7.172 11.268 3.418 8.316 3.418 17.643 0 25.958z" />
<glyph unicode="&#xe957;" glyph-name="arrows-left-down" d="M843.644 318.933c-6.413 6.464-15.142 10.099-24.252 10.099-9.105 0-17.835-3.635-24.247-10.099l-78.217-78.558v327.544c0 56.589-45.875 102.464-102.464 102.464h-327.542l78.556 78.214c8.663 8.664 12.047 21.291 8.876 33.126s-12.415 21.079-24.25 24.25c-11.834 3.171-24.462-0.212-33.126-8.876l-136.619-136.619c-3.11-3.248-5.547-7.078-7.173-11.271-3.416-8.315-3.416-17.642 0-25.958 1.626-4.193 4.063-8.023 7.173-11.271l136.619-136.617c6.413-6.468 15.143-10.103 24.25-10.103s17.837 3.635 24.25 10.103c6.466 6.413 10.103 15.142 10.103 24.247 0 9.109-3.637 17.839-10.103 24.252l-78.556 78.213h327.542c18.863 0 34.155-15.292 34.155-34.155v-327.544l-78.212 78.558c-8.666 8.661-21.291 12.045-33.126 8.875s-21.077-12.416-24.252-24.252c-3.17-11.831 0.213-24.461 8.879-33.122l136.619-136.619c3.247-3.11 7.078-5.551 11.268-7.177 8.269-3.652 17.694-3.652 25.958 0 4.194 1.626 8.026 4.066 11.273 7.177l136.619 136.619c6.464 6.413 10.103 15.142 10.103 24.247 0 9.109-3.639 17.839-10.103 24.252z" />
<glyph unicode="&#xe958;" glyph-name="arrows-maximize" d="M819.396 397.146c-18.863 0-34.155-15.292-34.155-34.155v-122.615l-498.316 498.317h122.615c18.862 0 34.154 15.292 34.154 34.155s-15.292 34.155-34.154 34.155h-204.928c-4.463-0.054-8.873-0.982-12.979-2.732-8.346-3.466-14.978-10.097-18.444-18.444-1.75-4.106-2.679-8.515-2.732-12.979v-204.928c0-18.863 15.291-34.155 34.155-34.155s34.155 15.292 34.155 34.155v122.615l498.316-498.317h-122.615c-18.863 0-34.155-15.292-34.155-34.155s15.292-34.155 34.155-34.155h204.928c4.463 0.055 8.875 0.981 12.979 2.731 8.346 3.469 14.976 10.099 18.445 18.445 1.749 4.109 2.679 8.516 2.731 12.979v204.928c0 18.863-15.292 34.155-34.155 34.155z" />
<glyph unicode="&#xe959;" glyph-name="arrows-merge" d="M467.947 489.702c3.106-3.247 5.547-7.078 7.172-11.268 3.413-8.316 3.413-17.643 0-25.958-1.626-4.194-4.066-8.021-7.172-11.273l-85.388-85.385c-6.413-6.468-15.143-10.103-24.25-10.103s-17.837 3.635-24.25 10.103c-6.466 6.413-10.103 15.142-10.103 24.247 0 9.109 3.637 17.839 10.103 24.252l27.324 26.982h-122.615v-136.619c0-18.863-15.292-34.155-34.155-34.155s-34.155 15.292-34.155 34.155v341.546c0 18.863 15.291 34.155 34.155 34.155s34.155-15.292 34.155-34.155v-136.618h122.615l-27.324 26.982c-8.663 8.661-12.047 21.291-8.876 33.125s12.415 21.079 24.25 24.25c11.835 3.171 24.463-0.212 33.126-8.876l85.388-85.388zM819.396 670.382c18.863 0 34.155-15.292 34.155-34.155v-341.546c0-18.863-15.292-34.155-34.155-34.155s-34.155 15.292-34.155 34.155v136.619h-122.615l27.324-26.982c6.468-6.413 10.103-15.142 10.103-24.252 0-9.105-3.635-17.835-10.103-24.247-6.413-6.468-15.142-10.103-24.247-10.103-9.109 0-17.839 3.635-24.252 10.103l-85.385 85.385c-3.11 3.251-5.547 7.078-7.172 11.273-3.418 8.316-3.418 17.643 0 25.958 1.626 4.19 4.062 8.021 7.172 11.268l85.385 85.388c8.666 8.664 21.291 12.047 33.126 8.876s21.077-12.415 24.252-24.25c3.17-11.834-0.213-24.463-8.879-33.125l-27.324-26.982h122.615v136.618c0 18.863 15.292 34.155 34.155 34.155z" />
<glyph unicode="&#xe95a;" glyph-name="arrows-resize-h" d="M443.691 670.382c18.863 0 34.155-15.292 34.155-34.155v-341.546c0-18.863-15.292-34.155-34.155-34.155s-34.153 15.292-34.153 34.155v136.619h-122.615l27.324-26.982c6.466-6.413 10.103-15.142 10.103-24.252 0-9.105-3.637-17.835-10.103-24.247-6.413-6.468-15.143-10.103-24.25-10.103s-17.837 3.635-24.25 10.103l-85.387 85.385c-3.11 3.251-5.547 7.078-7.173 11.273-3.416 8.316-3.416 17.643 0 25.958 1.626 4.19 4.063 8.021 7.173 11.268l85.387 85.388c13.393 13.393 35.107 13.393 48.5 0s13.393-35.105 0-48.498l-27.324-26.982h122.615v136.618c0 18.863 15.292 34.155 34.153 34.155zM850.816 478.434c3.418-8.316 3.418-17.643 0-25.958-1.626-4.194-4.062-8.021-7.172-11.273l-85.389-85.385c-6.413-6.468-15.142-10.103-24.247-10.103-9.109 0-17.839 3.635-24.252 10.103-6.464 6.413-10.103 15.142-10.103 24.247 0 9.109 3.639 17.839 10.103 24.252l27.324 26.982h-122.615v-136.619c0-18.863-15.292-34.155-34.155-34.155s-34.155 15.292-34.155 34.155v341.546c0 18.863 15.292 34.155 34.155 34.155s34.155-15.292 34.155-34.155v-136.618h122.615l-27.324 26.982c-8.661 8.661-12.045 21.291-8.875 33.125s12.416 21.079 24.247 24.25c11.836 3.171 24.465-0.212 33.126-8.876l85.389-85.388c3.11-3.247 5.547-7.078 7.172-11.268z" />
<glyph unicode="&#xe95b;" glyph-name="arrows-resize-v" d="M648.623 499.61h-102.464v190.923l26.982-27.324c6.413-6.466 15.142-10.103 24.247-10.103 9.109 0 17.839 3.637 24.252 10.103 6.464 6.413 10.103 15.143 10.103 24.25s-3.639 17.837-10.103 24.25l-85.389 85.387c-3.247 3.11-7.078 5.547-11.273 7.173-8.311 3.416-17.638 3.416-25.954 0-4.194-1.626-8.026-4.063-11.273-7.173l-85.387-85.387c-13.393-13.393-13.393-35.107 0-48.5s35.108-13.393 48.501 0l26.982 27.324v-190.923h-102.466c-18.863 0-34.155-15.292-34.155-34.155s15.291-34.155 34.155-34.155h102.466v-190.925l-26.982 27.324c-8.666 8.661-21.291 12.045-33.127 8.875-11.835-3.17-21.079-12.416-24.25-24.247-3.171-11.836 0.212-24.465 8.876-33.126l85.387-85.389c3.247-3.11 7.078-5.547 11.273-7.172 8.265-3.652 17.69-3.652 25.954 0 4.194 1.626 8.026 4.062 11.273 7.172l85.389 85.389c8.661 8.661 12.045 21.291 8.875 33.126-3.17 11.831-12.416 21.077-24.252 24.247-11.831 3.17-24.461-0.213-33.122-8.875l-26.982-27.324v190.925h102.464c18.863 0 34.155 15.292 34.155 34.155s-15.292 34.155-34.155 34.155z" />
<glyph unicode="&#xe95c;" glyph-name="arrows-resize" d="M850.816 478.43c-1.626 4.194-4.062 8.026-7.172 11.273l-85.389 85.387c-8.661 8.663-21.291 12.047-33.126 8.876-11.831-3.171-21.077-12.415-24.247-24.25-3.17-11.837 0.213-24.462 8.875-33.127l27.324-26.982h-190.925v102.466c0 18.863-15.292 34.155-34.155 34.155s-34.155-15.291-34.155-34.155v-102.466h-190.923l27.324 26.982c13.393 13.393 13.393 35.108 0 48.501s-35.107 13.393-48.5 0l-85.387-85.387c-3.11-3.247-5.547-7.078-7.173-11.273-3.416-8.316-3.416-17.643 0-25.954 1.626-4.194 4.063-8.026 7.173-11.273l85.387-85.389c6.413-6.464 15.143-10.103 24.25-10.103s17.837 3.639 24.25 10.103c6.466 6.413 10.103 15.142 10.103 24.252 0 9.105-3.637 17.835-10.103 24.247l-27.324 26.982h190.923v-102.464c0-18.863 15.292-34.155 34.155-34.155s34.155 15.292 34.155 34.155v102.464h190.925l-27.324-26.982c-6.464-6.413-10.103-15.142-10.103-24.247 0-9.109 3.639-17.839 10.103-24.252 6.413-6.464 15.142-10.103 24.252-10.103 9.105 0 17.835 3.639 24.247 10.103l85.389 85.389c3.11 3.247 5.547 7.078 7.172 11.273 3.418 8.311 3.418 17.638 0 25.954z" />
<glyph unicode="&#xe95d;" glyph-name="arrows-right-down" d="M850.505 669.625c-1.805 4.658-4.514 8.914-7.97 12.524l-113.847 113.849c-14.882 14.881-39.010 14.881-53.888 0-14.882-14.881-14.882-39.008 0-53.888l49.331-48.955h-325.985c-62.877 0-113.849-50.972-113.849-113.849v-325.989l-48.955 49.335c-14.881 14.882-39.008 14.882-53.888 0s-14.881-39.006 0-53.888l113.849-113.847c3.609-3.456 7.865-6.165 12.524-7.97 9.185-4.062 19.657-4.062 28.842 0 4.658 1.805 8.914 4.514 12.523 7.97l113.85 113.847c14.878 14.882 14.878 39.006 0 53.888-14.882 14.882-39.009 14.882-53.89 0l-48.955-49.335v325.989c0 20.959 16.991 37.95 37.95 37.95h325.985l-49.331-48.955c-7.185-7.126-11.226-16.825-11.226-26.945 0-10.116 4.041-19.819 11.226-26.944 7.125-7.185 16.823-11.226 26.944-11.226 10.116 0 19.819 4.041 26.944 11.226l113.847 113.849c3.456 3.609 6.165 7.865 7.97 12.524 3.797 9.239 3.797 19.602 0 28.842z" />
<glyph unicode="&#xe95e;" glyph-name="arrows-shrink-h" d="M707.029 489.702c3.11-3.247 5.547-7.078 7.172-11.268 3.413-8.316 3.413-17.643 0-25.958-1.626-4.194-4.062-8.021-7.172-11.273l-85.389-85.385c-6.413-6.468-15.142-10.103-24.247-10.103-9.109 0-17.839 3.635-24.252 10.103-6.464 6.413-10.103 15.142-10.103 24.247 0 9.109 3.639 17.839 10.103 24.252l27.324 26.982h-176.921l27.323-26.982c6.468-6.413 10.103-15.142 10.103-24.252 0-9.105-3.635-17.835-10.103-24.247-6.413-6.468-15.142-10.103-24.249-10.103s-17.837 3.635-24.25 10.103l-85.387 85.385c-3.11 3.251-5.547 7.078-7.172 11.273-3.416 8.316-3.416 17.643 0 25.958 1.626 4.19 4.063 8.021 7.172 11.268l85.387 85.388c13.393 13.393 35.106 13.393 48.499 0s13.393-35.105 0-48.498l-27.323-26.982h176.921l-27.324 26.982c-13.393 13.393-13.393 35.106 0 48.498s35.106 13.393 48.499 0l85.389-85.388zM204.613 670.382c18.863 0 34.155-15.292 34.155-34.155v-341.546c0-18.863-15.292-34.155-34.155-34.155s-34.155 15.292-34.155 34.155v341.546c0 18.863 15.291 34.155 34.155 34.155zM819.396 670.382c18.863 0 34.155-15.292 34.155-34.155v-341.546c0-18.863-15.292-34.155-34.155-34.155s-34.155 15.292-34.155 34.155v341.546c0 18.863 15.292 34.155 34.155 34.155z" />
<glyph unicode="&#xe95f;" glyph-name="arrows-shrink-v" d="M573.129 526.592l-26.982 27.324v-176.922l26.982 27.324c13.393 13.393 35.106 13.393 48.499 0s13.393-35.106 0-48.499l-85.389-85.389c-3.247-3.106-7.078-5.547-11.268-7.172-8.269-3.652-17.694-3.652-25.958 0-4.194 1.626-8.021 4.066-11.273 7.172l-85.386 85.389c-13.393 13.393-13.393 35.106 0 48.499s35.107 13.393 48.5 0l26.982-27.324v176.922l-26.982-27.324c-13.393-13.393-35.107-13.393-48.5 0s-13.393 35.107 0 48.5l85.386 85.387c3.251 3.11 7.078 5.547 11.273 7.172 8.316 3.416 17.643 3.416 25.958 0 4.19-1.625 8.021-4.063 11.268-7.172l85.389-85.387c6.464-6.413 10.103-15.143 10.103-24.25s-3.639-17.837-10.103-24.25c-6.413-6.464-15.142-10.103-24.252-10.103-9.105 0-17.835 3.639-24.247 10.103zM341.217 738.692c-18.863 0-34.155 15.292-34.155 34.155s15.291 34.155 34.155 34.155h341.548c18.863 0 34.155-15.291 34.155-34.155s-15.292-34.155-34.155-34.155h-341.548zM682.765 192.218c18.863 0 34.155-15.292 34.155-34.155s-15.292-34.155-34.155-34.155h-341.548c-18.863 0-34.155 15.292-34.155 34.155s15.291 34.155 34.155 34.155h341.548z" />
</font>
</defs>
</svg>
